<?xml version="1.0" encoding="utf-8"?>
<!-- Generator: Adobe Illustrator 27.8.0, SVG Export Plug-In . SVG Version: 6.00 Build 0)  -->
<svg version="1.1" id="Layer_1" xmlns="http://www.w3.org/2000/svg" xmlns:xlink="http://www.w3.org/1999/xlink" x="0px" y="0px"
	 viewBox="0 0 3587.56 647.11" style="enable-background:new 0 0 3587.56 647.11;" xml:space="preserve">
<g>
	<path d="M1590.3,354.73c-1.5,0.5-2.25,1.5-2.25,3l0.37,4.49c-0.25,0.75-1.25,1.38-3,1.87c-6.74-4.24-11.55-8.43-14.42-12.55
		c-2.87-4.12-4.44-7.17-4.68-9.17V342c0-1.25,4.62-3.24,13.86-5.99c8.48-2,16.97-4.99,25.47-8.99c7.99-4.24,12.98-7.36,14.98-9.36
		c0.99-1,2.18-2.31,3.56-3.93c1.37-1.62,4.43-4.68,9.17-9.17c11.73-6.24,22.41-14.48,32.02-24.72
		c9.61-10.23,17.16-19.97,22.66-29.21c9.74-19.47,14.6-39.07,14.6-58.79c0-6.24-0.5-12.36-1.5-18.35c0-2,0.37-4.12,1.12-6.37
		c0.5-1.25,0.75-2.62,0.75-4.12c0-5.24-3.12-10.73-9.36-16.48c-0.5,1.25-0.88,2.62-1.12,4.12c-6.99-13.48-18.85-25.21-35.58-35.2
		c0-0.25-0.13-0.37-0.37-0.37c-0.25,0-0.5,0.06-0.75,0.19c-0.25,0.13-0.37,0.32-0.37,0.56v0.75c11.48,8.24,18.78,16.35,21.91,24.34
		c3.12,7.99,4.68,15.35,4.68,22.09c0,3-0.25,5.99-0.75,8.99c-1-3.74-2.5-7.49-4.49-11.23c-5.49-10.49-12.23-20.66-20.22-30.52
		c-7.99-9.86-18.98-18.29-32.95-25.28c-29.21-15.48-62.29-23.72-99.24-24.72c-7.74-1.25-15.48-1.87-23.22-1.87
		c-22.22,0-48.68,5.37-79.39,16.1c-1.25,0.25-2.56,0.44-3.93,0.56c-1.38,0.13-2.81,0.44-4.31,0.94c-5.99,0.75-8.99,2-8.99,3.74v0.37
		c0.25,0,0.37,0.13,0.37,0.37l-14.98,5.24c0,0.25,0.06,0.44,0.19,0.56c0.12,0.13,0.31,0.19,0.56,0.19
		c6.99-1.74,14.1-3.24,21.35-4.49c0.75,0,1.56-0.12,2.43-0.37c0.87-0.25,1.81-0.37,2.81-0.37c3,0,5.24,1.12,6.74,3.37
		c-5,2-10.36,3.5-16.1,4.49c-11.98,2.5-22.84,5.24-32.58,8.24l-7.12,1.12c-8.49,1-16.35,2.56-23.59,4.68
		c-3.56,1.04-6.6,2.5-9.14,4.36c0.75-7.05,1.8-14,3.14-20.84c1.74-8.86,5.24-17.54,10.49-26.03c0-0.99-0.5-1.62-1.5-1.87l-1.5,0.37
		c-10.99,5-19.54,11.05-25.65,18.16c-6.12,7.12-11.3,14.67-15.54,22.66c-1.25,1.5-2.56,2.81-3.93,3.93
		c-1.38,1.12-2.62,2.38-3.74,3.74c-1.12,1.37-2.5,2.69-4.12,3.93c-1.63,1.25-3.69,2-6.18,2.25c-10.49,1-19.35,3.37-26.59,7.12
		c6.24-11.73,14.23-22.84,23.97-33.33c0.25-0.25,0.37-0.62,0.37-1.12c0-0.75-0.5-1.25-1.5-1.5l-2.62,0.37
		c-31.46,12.49-55.68,29.71-72.65,51.68l-1.12-0.37c-7.74,9.49-14.36,19.1-19.85,28.84c-6.24,8.49-11.49,17.23-15.73,26.21
		c-6.49,10.99-14.98,21.35-25.46,31.08c-19.72,17.73-38.7,36.08-56.92,55.05l-24.72,24.72c-6.24-5.49-10.24-12.6-11.98-21.35
		c-8.49-27.71-14.86-55.67-19.1-83.88c-4-24.46-9.24-48.81-15.73-73.02l-1.12-4.49c-0.5-2.74-1.31-5.43-2.43-8.05
		c-1.12-2.62-3.06-4.87-5.8-6.74c-2.75-1.87-5.62-2.81-8.61-2.81c-3,0-5.93,0.32-8.8,0.94c-2.87,0.63-5.68,0.94-8.43,0.94h-2.62
		c-2.25-1.5-3.37-4.24-3.37-8.24v-1.12c0-2-0.56-3.93-1.69-5.8c-1.12-1.87-4.31-3.18-9.55-3.93c-4,4-6.24,8.86-6.74,14.6
		c-0.25,2.5-0.88,4.87-1.87,7.12c-2,6.49-5.87,9.74-11.61,9.74l-3.74-0.37c-3.74-0.75-5.62-2-5.62-3.74c0-1.25,0.75-3.12,2.25-5.62
		c2.49-3.74,3.74-6.99,3.74-9.74c0-2.49-1.87-4.87-5.62-7.12c-2.5-1.25-4.75-1.87-6.74-1.87c-3.25,0-6.24,1-8.99,3
		c-2.75,2-5.56,3.31-8.43,3.93c-2.87,0.63-5,1.81-6.37,3.56c-1.38,1.75-2.56,3.74-3.56,5.99c-0.5,1.25-1.12,2.38-1.87,3.37
		c-8.74,15.23-15.48,30.84-20.22,46.81l-18.35,55.8c-5,3.25-9.43,8.05-13.29,14.42c-3.87,6.37-6.93,11.8-9.17,16.29l-1.87,3.74
		c-0.51,0.87-0.99,1.74-1.47,2.62c0.71-2.03,1.44-4.03,2.22-5.99c0-0.75-0.37-1.12-1.12-1.12c-0.5,0-0.88,0.13-1.12,0.37
		c-6.5,10.74-12.36,21.47-17.6,32.21c9.49-28.21,14.23-55.17,14.23-80.89c0-32.95-9.74-57.54-29.21-73.77
		c-17.98-14.73-43.57-22.09-76.77-22.09c-7.24,0-14.86,0.25-22.84,0.75c28.21,2.25,49.81,8.18,64.79,17.79
		c14.98,9.61,24.72,22.04,29.21,37.26l-1.5-1.12c-4.25-3.24-7.62-6.86-10.11-10.86c-7.49-11.98-18.48-19.97-32.95-23.97
		c-17.23-4.74-36.58-7.12-58.05-7.12c-7.49,0-14.86-0.5-22.09-1.5c-8.49-1.25-16.73-1.87-24.72-1.87
		c-24.22,0-46.69,5.62-67.41,16.85c-18.48,9.49-33.08,20.54-43.81,33.14c-10.74,12.61-20.1,26.9-28.09,42.88l-0.75,1.87
		c4.24-19.72,12.23-38.44,23.97-56.17v-0.37h-0.37c-3.74,4.49-7.62,8.86-11.61,13.11c-10.49,11.49-20.54,23.41-30.15,35.76
		c-9.61,12.36-17.41,25.15-23.41,38.38c-2.25,3.5-4,7.12-5.24,10.86c-0.25,1-0.63,1.87-1.12,2.62
		c-5.74,16.48-11.86,32.95-18.35,49.43l-0.37,0.75c-2,4.49-3.18,7.81-3.56,9.92c-0.37,2.12-0.56,4.06-0.56,5.8
		c0,4.49,1.63,12.86,4.87,25.09l0.37,2.25c0,1-0.62,3.37-1.87,7.12l-3.37,15.73l-5.62,24.72c-0.25,2.75-0.37,5.62-0.37,8.61
		c0,10.24,2.19,20.29,6.55,30.15c1.31,2.95,2.39,5.93,3.31,8.93c-3.29-0.09-6.58-0.13-9.86-0.13c-21.22,0-46.44,1.75-75.65,5.24
		l-5.62,0.37c4.74-1.5,9.23-4.12,13.48-7.86l9.36-1.5c18.72-2.49,28.09-4.12,28.09-4.87c0-0.5-0.37-0.75-1.12-0.75
		c-23.72-3-42.82-4.49-57.3-4.49h-23.97c-26.72,0-57.8,2.12-93.25,6.37c12.98-17.98,30.58-43.56,52.8-76.77l13.48-18.35
		c0.14,0,0.28-0.05,0.42-0.13c-5.82,10.79-10.09,21.69-12.78,32.71c0,1,0.37,1.81,1.12,2.43c0.75,0.63,2,0.94,3.74,0.94
		c0.75,0,1.37-0.37,1.87-1.12c6.49-9.74,16.04-23.72,28.65-41.94c12.6-18.22,25.46-36.38,38.57-54.49
		c13.11-18.1,23.78-31.77,32.02-41.01c7.24-7.99,15.04-15.73,23.41-23.22c8.36-7.49,16.1-14.98,23.22-22.47
		c7.11-7.49,12.67-15.48,16.66-23.97l0.37-1.87c0-0.75-0.25-1.5-0.75-2.25c10.98-13.73,21.84-27.71,32.58-41.94l19.1-24.72
		l0.37-0.75c0-0.25-0.19-0.43-0.56-0.56c-0.37-0.12-0.81-0.31-1.31-0.56c-0.5,0-1,0.25-1.5,0.75
		c-24.72,23.72-51.3,46.44-79.77,68.16c0.5-3,2.62-6.11,6.37-9.36c6.24-5.74,12.23-11.61,17.98-17.6
		c11.98-12.23,24.46-23.84,37.45-34.83l3-2.62c5.49-3.24,8.24-7.24,8.24-11.98v-1.12c-1.5-0.75-2.43-1.18-2.81-1.31
		c-0.37-0.12-0.69-0.19-0.94-0.19l-0.37,0.37c-9.24,7.99-16.98,11.98-23.22,11.98c-3.25,0-6.62-1.12-10.11-3.37
		c-1,0-1.87,0.19-2.62,0.56s-13.86,1.69-39.32,3.93c-23.22-6.99-42.5-10.61-57.86-10.86c-15.35-0.25-24.53-0.37-27.53-0.37
		c-25.97,0-55.8,1-89.5,3c-1.5,0.25-3.37,0.37-5.62,0.37l-4.49-0.37c-1.5,0-2.5,0.37-3,1.12c-2.75,3.74-5.62,6.37-8.61,7.86
		c-30.21,0.5-58.17,5.99-83.89,16.48c-0.5,0.25-0.75,0.75-0.75,1.5v0.37c0.5,1.25,23.34,2.12,68.53,2.62h0.75
		c-8.24,3.25-15.54,5.18-21.91,5.8c-6.37,0.63-12.42,2.06-18.16,4.31c-2,0.75-4.12,1.12-6.37,1.12c-2.25,0-4.62-0.37-7.12-1.12
		c-2.5-0.75-6.12-1.12-10.86-1.12c-3.74,0-7.99,1.5-12.73,4.49l0.75,0.37c-4.49,0-16.48,0.75-35.95,2.25c-0.75,0-1.25,0.13-1.5,0.37
		v0.75c0,1.75,15.48,3.87,46.44,6.37c0.5,2.25,21.59,6.87,63.29,13.86l0.75,3.74c0.75,5.24,4.87,8.12,12.36,8.61
		c7.99,2,18.47,3,31.46,3c14.23,0,30.83-1.25,49.81-3.74c9.98-1.25,21.22-2.37,33.7-3.37c-7.24,5.99-12.49,11.98-15.73,17.98
		c-2.25,4-5,7.99-8.24,11.98l-13.48,14.6c-4.49,5.49-10.74,12.11-18.72,19.85c-9.24,9.49-22.35,24.84-39.32,46.06
		c-22.97,28.22-43.57,52.56-61.79,73.02c-11.49,12.98-19.79,21.66-24.9,26.03c-5.12,4.37-10.18,9.12-15.17,14.23
		c-5,5.12-10.3,9.99-15.92,14.6c-5.62,4.62-11.92,7.93-18.91,9.92c-0.5,0.25-1.62,1.63-3.37,4.12c-0.5,1-0.75,1.75-0.75,2.25
		c0.5,1.5,0.75,3,0.75,4.49c0,3.75-2.49,8.12-7.49,13.11c-2.74,2.5-4.87,5.24-6.37,8.24l1.87,0.37c2.25,0,5.12-1.5,8.61-4.49
		c3.5-3,6.62-4.49,9.36-4.49h1.12l0.37,2.62c0,3.25-2.25,6.62-6.74,10.11L40.3,502.65c-7.24,5.49-10.86,11.11-10.86,16.85
		c0,1.5,0.37,3.25,1.12,5.24c0.75,2,2,3,3.74,3c1.75-0.25,3.62-0.99,5.62-2.25c3.5-1.74,5.62-2.62,6.37-2.62l1.5,0.37
		c-3,6.99-4.49,12.49-4.49,16.48c0.75,4,6.87,5.99,18.35,5.99c4.49,0,9.12-0.5,13.86-1.5l40.44-6.37c21.47-3,42.81-6.37,64.04-10.11
		c12.73-2,25.46-3.37,38.2-4.12c-31.21,7.74-61.29,17.1-90.25,28.09l-0.37,0.75l0.37,0.75h0.75
		c57.42-14.48,111.84-25.84,163.28-34.08c28.96-3.74,51.55-9.11,67.78-16.1c22.97-3,44.44-7.49,64.41-13.48l0.37-0.75h-0.75
		c-10.24-1.25-21.1-2.25-32.58-3c-1-3-1.5-4.87-1.5-5.62c18.15-4.66,36.06-9.45,53.77-14.33c0.34,2.88,0.53,5.78,0.53,8.71
		l-0.37,7.49c0,2.25,3.37,4.75,10.11,7.49l1.12,0.75c12.48,5.75,26.34,9.74,41.57,11.98l4.12,0.75l7.49,1.12
		c3.99,0.5,7.86,1.25,11.61,2.25c3.74,1,6.99,2.87,9.74,5.62c-4.49,2.25-9.99,3.37-16.48,3.37c-3,0-6.37-0.31-10.11-0.94
		c-3.74-0.62-7.74-0.94-11.98-0.94l-6.74,0.37c7.74,5.49,15.73,8.24,23.97,8.24l16.1,0.38c44.69,0,87.13-7.49,127.33-22.47
		c9.23-3.99,17.6-8.74,25.09-14.23c15.23-10.98,28.84-22.71,40.82-35.2l3.74,0.37c10.49,0,27.84-19.97,52.05-59.92l2.62,0.37l3-0.37
		c17.23-9.49,28.89-21.97,35.01-37.45c2.87-7.28,5.31-14.65,7.33-22.12c0.46,5.25,1.33,10.5,2.6,15.76
		c-5.74,18.98-9.98,35.2-12.73,48.68c-2.49,7.49-4.74,14.86-6.74,22.09c-4.24,13.24-6.37,24.72-6.37,34.45s2.38,19.35,7.12,28.84
		l1.12,0.37l0.75-0.37c5.24-8.99,9.24-17.98,11.98-26.96c2.5,1.25,4,3.25,4.49,5.99c0.5,2.75,0.75,5.12,0.75,7.12
		c0,6.49-1.12,12.23-3.37,17.23c-0.25,1-0.75,2.12-1.5,3.37c-1.5,2.25-2.25,4.25-2.25,5.99c0,1.5,1.25,3,3.74,4.49l-1.5,6.37
		c-5.49,19.72-8.24,39.2-8.24,58.42c0,2.25,0.06,4.56,0.19,6.93c0.13,2.38,2.06,3.56,5.8,3.56c3.74,0,5.62-1.25,5.62-3.75
		c0.25-5.99,2.19-11.36,5.8-16.1c3.62-4.74,7.81-9.23,12.55-13.48c13.23-11.98,21.59-25.84,25.09-41.57l7.12-20.6
		c0.75,1,1.25,1.87,1.5,2.62c0.75,1.75,1.74,3.18,3,4.31c1.25,1.12,3.49,1.69,6.74,1.69c2.49-3.75,7.55-15.6,15.17-35.58
		c7.61-19.97,15.92-42.63,24.9-67.97c8.99-25.34,16.72-48.18,23.22-68.53c6.49-20.35,9.98-32.89,10.49-37.64
		c-5.99,6.5-9.99,13.24-11.98,20.22c-1.25,3.74-2.87,7.49-4.87,11.23c-1.25,5-4,8.12-8.24,9.36c-2.5,0.75-3.74,1.75-3.74,3
		c0,1.25,0.19,2.19,0.56,2.81c0.37,0.63,0.68,1.06,0.94,1.31c0,6.99-1.5,13.42-4.49,19.29c-3,5.87-6.74,11.67-11.23,17.41
		l-0.75,1.12c0.75-12.98,4.49-25.71,11.23-38.2c1.5-3,3-6.74,4.49-11.23c3-10.23,6.74-20.72,11.23-31.46
		c3.49-8.74,8.48-17.1,14.98-25.09c2,0.75,3,2,3,3.74v2.25c0,1.5,0.37,2.56,1.12,3.18c0.75,0.63,2.12,1.06,4.12,1.31l0.37-1.12
		c0.99-2.49,1.74-4.99,2.25-7.49l5.62,33.7c3.24,21.72,7.49,43.57,12.73,65.53v2.25c0,17.98,2.81,36.27,8.43,54.86
		c5.62,18.6,11.92,36.39,18.91,53.36c-1.25,1.5-2.06,2.87-2.43,4.12c-0.37,1.25-0.63,2.43-0.75,3.56c-0.13,1.12-0.44,2.43-0.94,3.93
		c-0.5,1.5-1.25,3.06-2.25,4.68c-1,1.63-1.5,2.94-1.5,3.93c0,2.75,2.49,5,7.49,6.74h1.5c3-4.24,5.24-7.61,6.74-10.11h1.87
		c2.49,0,3.74-0.75,3.74-2.25c0-3,0.12-4.74,0.37-5.24c1.74-1.25,6.49-3.87,14.23-7.86c-0.75,2.75-2.25,5.24-4.49,7.49
		c-1.5,1.5-2.25,2.75-2.25,3.75l0.37,3.37l0.37,1.87h0.37c0-0.25,0.37-0.5,1.12-0.75c2.74-0.99,4.18-1.74,4.31-2.25
		c0.12-0.5,0.31-0.99,0.56-1.5c0-1.74,1.18-3.37,3.56-4.87c2.37-1.5,4.43-3.24,6.18-5.24c4.49-5.49,9.36-8.24,14.6-8.24
		c2.49,0,5.37,0.5,8.61,1.5h1.12c2.49,0,5.11-2.12,7.86-6.37l17.23-19.47c1.74-1.74,5.99-6.99,12.73-15.73
		c9.98-12.98,20.22-25.34,30.71-37.07c6.99-7.49,15.85-17.72,26.59-30.71c6.74-8.24,13.98-16.23,21.72-23.97l10.49-10.86
		c0.5,3.5,0.75,6.87,0.75,10.11c0,12.73-3.37,24.59-10.11,35.58c-12.23,23.22-20.22,42.82-23.97,58.79
		c-3.25,13.99-9.49,31.08-18.72,51.3l-0.37,0.75c-2.75,5.24-4.12,9.74-4.12,13.48c0,2.75,0.87,5.49,2.62,8.24
		c11.98,16.98,17.98,31.83,17.98,44.56c0,6.49-0.88,11.49-2.62,14.98l-0.75,4.12c0,2.14,1.35,4.03,4.02,5.66
		c-2.55,0.09-4.78,0.38-6.65,0.9c-2.25,0.63-3.49,2.19-3.74,4.68c0,2.5,1.06,4.31,3.18,5.43c2.12,1.12,4.81,1.81,8.05,2.06
		c4.25,0.25,10.11,0.37,17.6,0.37c10.24,0,19.98,1.5,29.21,4.49c13.48,5,27.21,7.49,41.19,7.49c9.24,0,20.1-1.25,32.58-3.75
		c5.99-1.5,11.74-2.25,17.23-2.25c5.24,0,10.74,1,16.48,3c-6.74,2.75-11.8,5.99-15.17,9.74c-3.37,3.75-6.42,7.99-9.17,12.73
		l46.06-9.74l19.47-4.49c30.71-5.99,60.54-13.29,89.5-21.91c28.96-8.61,55.17-21.03,78.64-37.26c3.74-2.74,7.86-5.11,12.36-7.11
		c4.49-2,6.99-3.24,7.49-3.74c3-1.74,5.11-2.62,6.37-2.62c1.5,0,2.74,0.63,3.74,1.87c2.49,3.25,4.36,5,5.62,5.24
		c1.25,0.25,2,0.37,2.25,0.37c2.49,0,5.62-1.87,9.36-5.62c0.25-0.5,0.62-0.87,1.12-1.12c14.73-13.73,23.84-28.84,27.34-45.31
		c1.5-8.99,5.37-16.97,11.61-23.97c10.49-13.23,15.73-26.83,15.73-40.82C1634.87,392.55,1620.01,371.71,1590.3,354.73z
		 M193.09,428.13l-3.37,2.62c-3,2-5.87,4.49-8.61,7.49c-7.74,8.49-15.73,13.73-23.97,15.73c3.74-4.49,6.61-7.68,8.61-9.55
		c2-1.87,3.99-3.56,5.99-5.06c2-1.5,5.37-4.49,10.11-8.99l5.99-5.62c1.74,0,3.31-0.37,4.68-1.12c1.37-0.75,2.49-1.31,3.37-1.68
		c0.87-0.37,1.69-0.81,2.43-1.31C195.59,424.14,193.84,426.63,193.09,428.13z M461.23,452.47l2.25,1.12
		c0.62,0.27,1.24,0.55,1.86,0.84c-1.13-0.1-2.25-0.2-3.38-0.3C461.71,453.59,461.46,453.04,461.23,452.47z M472.27,469.7
		c-2.76-2.68-5.24-5.95-7.45-9.82c1.67-0.47,3.35-0.94,5.01-1.41c0.9-0.22,1.38-0.56,1.46-0.99c3.13,1.73,6.26,3.68,9.4,5.86
		c5.74,4,9.74,9.24,11.98,15.73C483.44,477.06,476.64,473.95,472.27,469.7z M717,375.33c-4.25,2.75-6.49,4.62-6.74,5.62
		c-0.25,1-0.37,1.75-0.37,2.25c0,1.5-0.75,2.87-2.25,4.12c-7.49,6.49-14.23,13.36-20.22,20.6c-2.5,3.25-5.12,6.24-7.86,8.99
		c8.74-9.98,16.85-20.84,24.34-32.58l4.49,0.37c0.75,0,1.12-0.5,1.12-1.5c0-0.99,0.12-2.56,0.37-4.68c0.25-2.12,0.94-4.24,2.06-6.37
		c1.12-2.12,2.43-4.12,3.93-5.99c1.5-1.87,3.49-3.56,5.99-5.06c2,2,3,3.87,3,5.62C724.86,368.96,722.24,371.83,717,375.33z
		 M736.1,280.96c-2,13.48-5.75,26.84-11.23,40.07h-0.37c-11.98,10.24-24.59,26.59-37.82,49.06c-9.74,16.48-20.6,32.21-32.58,47.19
		c-18.98,23.72-38.82,35.58-59.54,35.58c-10.24,0-21.47-3-33.7-8.99l0.75,0.75c15.48,10.99,29.21,16.48,41.19,16.48l7.49-0.37
		c13.48-2.25,25.09-6.61,34.83-13.11c-2.25,6.5-6.99,10.86-14.23,13.11c-7.24,2.25-15.11,3.74-23.59,4.49c-4,0.5-7.55,1-10.67,1.5
		c-3.12,0.5-5.93,0.75-8.43,0.75c-17.73,0-31.08-12.98-40.07-38.95c-5.24-15.48-7.86-31.21-7.86-47.18c0-4.49,0.25-9.11,0.75-13.86
		v-0.37h-0.75c-1.5,5.24-3.12,10.24-4.87,14.98c-4,9.74-6.74,19.6-8.24,29.58c-1.75-3-2.62-6.99-2.62-11.98
		c0.5-31.95,5.11-63.53,13.86-94.75c0,14.23,1.62,26.47,4.87,36.7c0.25,0.5,0.62,0.75,1.12,0.75c0.5,0,0.87,0,1.12,0
		c0.99,0,1.5-0.37,1.5-1.12c1.25-25.21,8.86-49.68,22.84-73.4v0.37l-0.37,0.75l1.12,0.37c-0.25-0.25-0.37-0.43-0.37-0.56
		c0-0.12-0.13-0.19-0.37-0.19c8.74-7.24,15.85-15.29,21.35-24.15c5.49-8.86,13.23-17.16,23.22-24.9c1.74-1,2.62-2.25,2.62-3.74
		c0-0.75-0.5-3.12-1.5-7.12c11.98-11.23,26.34-19.22,43.07-23.97c4.49-1,8.86-1.5,13.11-1.5c12.23,0,28.33,5.99,48.31,17.98
		l4.12,6.37l0.37,0.75c4.49,6.99,7.86,13.98,10.11,20.97v1.12c-1,2.75-1.87,4.56-2.62,5.43c-0.75,0.88-1.25,1.56-1.5,2.06v2.62
		c4.24,10.49,6.37,20.73,6.37,30.71C736.85,274.47,736.6,277.71,736.1,280.96z M781.41,239.39c-0.5-4.99-1.5-11.36-3-19.1
		c3,4.75,4.49,8.86,4.49,12.36C782.91,234.65,782.41,236.9,781.41,239.39z M962.29,246.88c-0.5-0.5-0.75-1.12-0.75-1.87l0.37-0.37
		c0.25-0.5,0.87-1,1.87-1.5l0.75,2.25l1.12,6.37C964.91,250.25,963.79,248.63,962.29,246.88z M1074.26,348.36v-0.75
		c0-7.99,3.87-17.04,11.61-27.15c7.74-10.11,16.66-19.66,26.78-28.65c10.11-8.99,18.41-15.48,24.9-19.47
		C1124.31,302.3,1103.22,327.64,1074.26,348.36z M1550.23,262.98c-12.23,20.22-25.59,34.96-40.07,44.19
		c-9.99,5.75-20.66,9.86-32.02,12.36c-11.36,2.5-21.29,3.74-29.77,3.74c-3.74,0-7.49-0.25-11.23-0.75
		c7.24-18.97,15.97-37.69,26.21-56.17l8.24-15.73c3.99-6.24,8.11-12.55,12.36-18.91c4.24-6.37,6.93-10.98,8.05-13.86
		c1.12-2.87,1.69-5.3,1.69-7.3c0-3.74-2.75-10.73-8.24-20.97v-2.62c0-0.99-0.13-1.93-0.37-2.81c-0.25-0.87-1.12-1.56-2.62-2.06
		c-4,1-6.93,2.5-8.8,4.49c-1.87,2-3.43,4.06-4.68,6.18c-1.25,2.12-2.75,4.12-4.49,5.99c-1.75,1.87-4.37,3.31-7.86,4.31
		c-2.5-1.25-3.74-2.37-3.74-3.37c0-2.49,0.12-4.37,0.37-5.62c0.25-1.25,0.38-3,0.38-5.24c-0.25-1.74-1.75-3.37-4.49-4.87
		c-6.74,3.25-14.73,6.43-23.97,9.55c-9.24,3.12-18.04,6.68-26.4,10.67c-8.37,4-14.17,8.99-17.41,14.98c-1,2.25-2.94,3.81-5.8,4.68
		c-2.87,0.88-5.43,1.31-7.68,1.31c-2.5,0-5.12-0.25-7.86-0.75l3.74-5.62c2.74-3.49,4.99-6.86,6.74-10.11
		c1.74-3.24,2.62-7.36,2.62-12.36c-7.99,5.75-14.11,13.61-18.35,23.59c-4.25,9.99-8.49,20.22-12.73,30.71h1.5l-2.25,4.49
		c-2.25,5-4.62,9.87-7.12,14.6c-13.98,29.96-26.71,60.17-38.2,90.63l-13.11,32.95c0,0.5,0.32,0.94,0.94,1.31
		c0.63,0.37,1.31,0.56,2.06,0.56c1,0,1.63-0.37,1.87-1.12c17.73-30.95,34.7-62.16,50.93-93.62c4.24-8.24,8.86-16.48,13.86-24.72
		c-14.73,30.71-29.21,61.67-43.44,92.87c-5.99,14.73-12.86,29.21-20.6,43.44c-3.99,7.74-7.49,15.48-10.49,23.22
		c-3.74,10.74-8.99,21.1-15.73,31.08c16.23,1.75,25.03,3.43,26.4,5.06c1.37,1.63,2.06,2.94,2.06,3.93c0,3-2.25,7.74-6.74,14.23
		l-1.5,1.87c-1.5,2.25-2.25,4.12-2.25,5.62c0,1.25,0.5,2.5,1.5,3.75l4.12,0.37c3.5,0,7.3-1.56,11.42-4.68
		c4.12-3.12,7.68-4.68,10.67-4.68l3,0.37c1.5,1.5,2.38,3,2.62,4.49c0,1.75-0.19,3.43-0.56,5.05c-0.37,1.63-0.56,3.93-0.56,6.93
		c0.5,2,2.38,3.87,5.62,5.62l18.35-55.8c2.74,0.75,4.49,2.5,5.24,5.24c1.5,2.75,3.37,4.12,5.62,4.12c3.24,0,5.24-1.25,5.99-3.74
		c0.75-2.49,2.62-6.74,5.62-12.73c7.24-15.23,14.98-30.33,23.22-45.31c8.74-17.23,17.47-27.58,26.21-31.08
		c8.74-3.49,20.72-5.24,35.95-5.24c6.49,0,13.86,0.25,22.09,0.75c18.22,0.75,30.08,5.87,35.58,15.35
		c7.99,14.73,11.98,25.97,11.98,33.7v11.61c0,14.98-6.74,28.46-20.22,40.44c-50.43,43.44-110.47,65.16-180.13,65.16h-8.24
		c-6.24,0-10.3,1.81-12.17,5.43c-1.87,3.62-6.8,6.06-14.79,7.3h-1.5c-13.23,2.25-26.09,5.24-38.57,8.99
		c-23.22,6.99-42.94,10.49-59.17,10.49l-6.78-0.25c3.95-6.47,6.97-13.25,9.03-20.35c2.74-11.23,8.86-21.47,18.35-30.71
		c2.49,1.5,3.74,2.87,3.74,4.12c0,1.5-0.37,3-1.12,4.49s-1.12,3-1.12,4.49c0,1.25,1.25,2.5,3.74,3.74l4.12-4.49
		c3-3.24,5.24-6.61,6.74-10.11c8.74-20.97,16.85-39.32,24.34-55.05c9.74-19.72,18.72-41.44,26.96-65.16
		c4.49-0.5,7.74-2.49,9.74-5.99c8.48-17.72,14.6-35.95,18.35-54.67c3.49-16.97,7.24-41.81,11.23-74.52
		c3.74-9.98,8.36-19.72,13.86-29.21c6.49-11.23,9.74-20.84,9.74-28.84c0-5.99-2.12-12.11-6.37-18.35
		c2.74-6.99,5.86-13.98,9.36-20.97l-0.37-0.37c-0.25,0-0.37,0.13-0.37,0.37c-1.25,1.25-2.62,3-4.12,5.24v-0.75
		c1.1-3.67,2.06-7.35,2.9-11.04c6.18-1.28,12.33-2.59,18.45-3.94l29.96-5.99c7.24-0.25,13.98-1.12,20.22-2.62
		c2.74-0.5,5.24-0.75,7.49-0.75c4.49,0,9.11,1.5,13.86,4.49c4.99,2.5,8.86,3.74,11.61,3.74c2.49,0,5.24-0.75,8.24-2.25
		c11.73-5.24,24.84-8.36,39.32-9.36l8.61-1.12c5.99-0.75,11.98-1.12,17.97-1.12c4.74,0,9.61,0.25,14.6,0.75
		c19.97,2.5,38.2,7.49,54.68,14.98l1.12,0.75c4.74,2,7.36,3.69,7.86,5.06c0.5,1.37,0.75,2.43,0.75,3.18c0,1.75-0.63,3.62-1.87,5.62
		c-15.98-10.49-34.83-16.48-56.55-17.98c-6.49-1.25-14.36-1.87-23.59-1.87v0.37c2.25,0,3.62,0.13,4.12,0.37
		c14.48,3,26.08,8.12,34.83,15.35c8.74,7.24,16.35,15.86,22.84,25.84c2.74,4.25,4.87,8.86,6.37,13.86
		C1569.71,224.41,1562.46,242.76,1550.23,262.98z M1613.9,412.78c-6.49-7.74-10.36-15.73-11.61-23.97c-1-5.24-2.62-10.36-4.87-15.35
		c10.23,7.99,16.16,13.92,17.79,17.79c1.62,3.87,2.43,6.93,2.43,9.18C1617.64,404.41,1616.39,408.53,1613.9,412.78z"/>
	<path d="M1795.52,375.33l3.74-9.36c8.49-24.21,14.98-48.43,19.47-72.65c2.25-10.98,4.74-21.97,7.49-32.95
		c11.98-17.23,18.97-33.08,20.97-47.56c1.25-9.23,1.87-16.1,1.87-20.6c0-7.99-1-15.6-3-22.84c-0.5-1.25-1.63-2.12-3.37-2.62
		c4.99-5.49,8.86-11.61,11.61-18.35c1.5-5.74,2.25-11.48,2.25-17.23c0-5.74-0.69-11.54-2.06-17.41c-1.38-5.86-2.06-11.8-2.06-17.79
		c0-4.74,0.38-9.36,1.12-13.86c0-1-0.88-1.5-2.62-1.5c-0.75,0-1.25,0.25-1.5,0.75c-8.24,16.48-14.36,33.08-18.35,49.81
		c-4.25,11.49-11.98,21.72-23.22,30.71l-11.23,10.86c1.74-12.98,4.24-25.59,7.49-37.82c0-0.5-0.19-0.94-0.56-1.31
		c-0.37-0.37-0.69-0.56-0.94-0.56c-0.25,0-0.69,0.06-1.31,0.19c-0.63,0.13-1.06,0.44-1.31,0.94
		c-10.99,16.23-20.85,32.95-29.58,50.18h-0.38c-5.24,7.24-19.23,39.95-41.94,98.12c-9.49,24.22-17.67,45.94-24.53,65.16
		c-6.87,19.23-10.43,31.08-10.67,35.58c5.99-6.24,10.11-12.6,12.36-19.1c0.99-2.74,2.25-5.37,3.74-7.86l1.12-3
		c0.75-2,1.74-3.8,3-5.43c1.25-1.62,3.43-2.74,6.55-3.37c3.12-0.62,4.68-1.18,4.68-1.69c0-0.25-0.32-0.68-0.94-1.31
		c-0.63-0.62-1.25-1.93-1.87-3.93c-0.63-2-0.94-3.99-0.94-5.99c0-3.24,0.87-6.49,2.62-9.74c3-4.74,6.61-9.49,10.86-14.23l4.87-5.99
		c-0.5,6.99-3.56,17.6-9.17,31.83c-5.62,14.23-11.86,28.09-18.72,41.57c-6.87,13.48-12.42,22.6-16.66,27.34c-2-0.75-3-1.74-3-3
		v-3.74c0-2-1.87-3-5.62-3l-0.38,1.12c-1.5,3-2.25,5.24-2.25,6.74v2.62c0,2.75,1.62,5.62,4.87,8.61c0.75,0.75,1.12,1.37,1.12,1.87
		c0,1.25-2.38,2.38-7.11,3.37c-3.24,0.75-6.24,1.81-8.99,3.18c-2.74,1.38-4.12,3.43-4.12,6.18c0,4-2,8.86-5.99,14.6
		c-3.99,5.75-5.99,10.74-5.99,14.98c0,3.74,2.38,7.62,7.11,11.61c0.5,0.5,0.75,1.25,0.75,2.25c0,1.75-1.87,5.12-5.62,10.11l-3,5.99
		l-0.37,2.25c0,1.5,0.63,3,1.87,4.49c8.74-1.5,15.11-2.25,19.1-2.25c3.74,0.25,6.24,1.63,7.49,4.12l-4.12,23.97
		c-1.99,17.98-6.49,35.71-13.48,53.18c0,0.75,0.5,1.12,1.5,1.12h1.12c0.75,0,1.38-0.25,1.87-0.75
		c7.24-13.23,15.35-26.34,24.34-39.32c10.23-14.48,19.22-29.21,26.96-44.19c2.74-5.24,5.74-10.61,8.99-16.1
		c0,2.25-0.06,3.56-0.19,3.93c-0.13,0.37-0.32,0.69-0.56,0.94l-2.25,4.87v0.75c0.25,0.25,0.87,0.37,1.87,0.37
		c-0.5,5.99-1.38,11.86-2.62,17.6c0,0.75,0.5,1.12,1.5,1.12c1.5,0,2.37-0.25,2.62-0.75c6.24-11.98,13.67-24.59,22.28-37.82
		c8.61-13.23,16.66-26.83,24.15-40.82c7.49-13.98,12.6-27.83,15.35-41.57L1795.52,375.33z"/>
	<path d="M2409.31,104.2h-0.38l0.75,0.75C2409.68,104.7,2409.55,104.45,2409.31,104.2z"/>
	<path d="M2756.45,222.91l-0.37-0.75h-1.12c-0.5,0.25-0.75,0.5-0.75,0.75c-6.74,38.45-17.1,76.77-31.08,114.97
		c13.73-57.17,22.34-114.46,25.84-171.89l0.37-6.37c0-2.49-0.25-4.49-0.75-5.99c-0.75-2.49-2.87-4.49-6.37-5.99
		c-3.5-1.5-9.24-3.24-17.23-5.24l-4.87-1.12c-5.24-1-9.43-2.31-12.55-3.93c-3.12-1.62-4.68-4.05-4.68-7.3l0.38-2.62
		c0-4.24-6.99-6.37-20.97-6.37c-10.99,0-20.73,2.5-29.21,7.49c-4.75,3.5-9.24,7.12-13.48,10.86c3.99-14.73,5.99-29.46,5.99-44.19
		c0-0.25-0.13-0.37-0.37-0.37c-0.5,0-0.88,0.13-1.12,0.37c-1,5.49-3.62,10.55-7.86,15.17c-4.25,4.62-8.86,9.05-13.86,13.29
		c-11.23,9.49-20.1,20.1-26.59,31.83c-4.25,6.74-8.12,12.61-11.61,17.6c-4.75,6.49-9.12,13.11-13.11,19.85
		c-6.5,9.24-13.11,18.35-19.85,27.34c-18.48,24.47-36.2,49.19-53.18,74.15c-2,3-4.37,5.49-7.12,7.49c-1,0-1.75,0.13-2.25,0.37
		c-9.49,1-18.98,2.25-28.46,3.74c-11.74,2-23.72,3.5-35.95,4.49c-0.75,0.25-1.12,0.5-1.12,0.75c0,0.5,6.74,1.25,20.22,2.25
		c2.25,0.25,4.62,0.37,7.11,0.37l-10.49,3c-10.49,3.5-21.22,5.75-32.21,6.74c-17.15,0.71-33.28,3.71-48.39,8.97l16.93-36.68
		c4.49-9.23,8.05-18.16,10.67-26.78c2.62-8.61,4.31-20.78,5.06-36.51c-5.49,10.24-9.12,18.23-10.86,23.97
		c-1.75,4.75-3.93,9.55-6.55,14.42c-2.62,4.87-7.3,11.18-14.04,18.91c-2.75-3.24-4.12-5.99-4.12-8.24v-0.37
		c0.25-2,0.87-3.87,1.87-5.62c0.75-0.75,1.87-3,3.37-6.74l0.37-3c-0.25-0.5-0.63-1.06-1.12-1.69c-0.5-0.62-0.75-1.43-0.75-2.43
		c0-2.25,0.5-4.87,1.5-7.86c5.74-14.98,12.23-29.83,19.47-44.56c6.49-12.98,12.42-26.27,17.79-39.88
		c5.37-13.6,9.05-27.77,11.05-42.5l0.37-7.86c0-4.99-0.5-9.98-1.5-14.98c-15.23-8.24-22.84-18.35-22.84-30.33
		c0-3.24,0.5-9.3,1.5-18.16c1-8.86,3.87-17.16,8.61-24.9c3.99-6.99,6.74-14.6,8.24-22.84c-5,0-8.24,0.56-9.74,1.69
		s-2.38,2.69-2.62,4.68c-5,13.48-12.86,25.72-23.59,36.7c-7.99,8.24-14.73,17.23-20.22,26.96c0,0.5-0.13,0.88-0.38,1.12
		c-0.5,1.25-1.06,2.38-1.68,3.37c-0.63,1-1.56,1.87-2.81,2.62c-21.72,12.98-35.83,25.46-42.32,37.45
		c-3.16,5.45-5.68,11.12-7.59,16.98l-13.75,0.62l-62.54,2.25l-10.86,0.75c-4.25,0-6.99-0.75-8.24-2.25
		c-1.25-1.5-1.87-2.74-1.87-3.74c0-1.25,0.62-2.37,1.87-3.37c29.71,0,55.3-0.99,76.77-3c0.25,0,0.38-0.12,0.38-0.37v-0.37
		l-9.36-0.37c-3.5,0-6.87-0.06-10.11-0.19c-3.25-0.12-5.87-0.31-7.86-0.56l-3.37-0.37l0.75-0.37v-0.37l-0.75-0.37
		c-2.5,0.25-5.12,0.37-7.86,0.37c-15.73-1.74-31.71-3.99-47.93-6.74c-11.74-2-23.59-3.87-35.58-5.62l23.22-0.37l23.22,0.37
		c-1.5-3.24-3.56-5.3-6.18-6.18c-2.62-0.87-5.43-1.31-8.43-1.31c-15.23,0-26.59-0.12-34.08-0.37c-6.24-0.25-12.61-0.37-19.1-0.37
		c-11.98,0-24.34,0.37-37.07,1.12c-8.99,0.5-15.35,1.12-19.1,1.87c-2.5,0.75-13.48,2.25-32.96,4.49l-5.24,0.37
		c-4.75,0-9.36-1.12-13.86-3.37c-8.24-4.99-16.35-7.49-24.34-7.49c-8.49,0-16.85,2.87-25.09,8.61c-1.75,1.25-3.12,2.62-4.12,4.12
		c-1,1.5-2.31,2.87-3.93,4.12c-1.63,1.25-4.12,1.94-7.49,2.06c-3.37,0.13-6.24,0.75-8.61,1.87c-2.38,1.12-4.56,2.43-6.55,3.93
		c-4.49,3.74-9.49,5.62-14.98,5.62c-2.25,0-4.87-0.25-7.86-0.75c-2.5,7.49-5.99,16.85-10.49,28.09c-2.5,7.49-4.87,13.48-7.11,17.98
		c-5.99,13.24-9.61,26.59-10.86,40.07c-1,8.99-2.75,17.85-5.24,26.59c-2.5,8.74-6.99,17.23-13.48,25.46
		c-7.99,10.74-12.61,21.85-13.86,33.33c-2,4-4,8.49-5.99,13.48c-14.48,16.73-24.96,34.08-31.46,52.05c-0.25,1.25-0.75,2.5-1.5,3.74
		c-1.5,2.25-2.25,3.87-2.25,4.87c0,3,2.38,4.62,7.11,4.87c-3.74,9.74-6.99,19.35-9.74,28.84l-0.37,1.12c0,0.75,0.44,1.56,1.31,2.43
		c0.88,0.88,2.06,1.31,3.56,1.31c-6.24,10.99-10.49,22.22-12.73,33.7c0,1,0.88,1.5,2.62,1.5c0.75,0,1.25-0.25,1.5-0.75
		c5.24-8.24,10.61-16.35,16.1-24.34c0,0.25,0.19,0.5,0.56,0.75c0.37,0.25,0.56,0.63,0.56,1.12l-0.38,1.5
		c-2.74,2.75-4.36,4.49-4.87,5.24l-4.12,5.99c-2.49,4.75-5.99,8.99-10.49,12.73c-5.74,4-8.8,6.99-9.17,8.99
		c-0.38,2-0.56,3.12-0.56,3.37c0,3.25,3.25,6.74,9.74,10.49c3.25,1.75,4.87,4,4.87,6.74c-0.99,2.5-5.24,4.12-12.73,4.87
		c-4.49,0.25-7.86,1-10.11,2.25c-6.49,1.75-9.74,3.75-9.74,5.99l0.37,1.5c1,2,2.75,3.37,5.24,4.12c2.5,0.75,5.31,1.25,8.43,1.5
		c3.12,0.25,6.31,0.5,9.55,0.75c5,0,9.49,0.37,13.48,1.12c-4.24,0.75-8.86,1.87-13.86,3.37h-0.37c0,0.25,0.07,0.44,0.19,0.56
		c0.13,0.13,0.32,0.19,0.56,0.19c10.99-0.99,17.97-1.5,20.97-1.5c7.99,3.5,16.1,5.24,24.34,5.24h6.37c6.24,0,12.48-0.25,18.72-0.75
		l20.22-1.87c0.25,0.5,0.99,0.75,2.25,0.75c10.73,1.25,20.97,1.87,30.71,1.87c8.24-0.25,16.85-0.99,25.84-2.25l21.35-1.87
		c35.7-2.49,70.15-8.61,103.36-18.35c0.5,0,0.75-0.37,0.75-1.12h-1.12c-19.72,3-39.57,5.12-59.54,6.37
		c11.48-3.99,23.59-6.24,36.32-6.74c4.49-0.25,8.86-0.75,13.11-1.5c1.5-0.25,3.12-0.37,4.87-0.37l4.87,0.37
		c6.49,0,10.23-0.5,11.23-1.5c3.74-3.99,8.48-6.68,14.23-8.05c5.74-1.37,11.8-2.37,18.16-3c6.37-0.62,12.29-1.69,17.79-3.18
		c3.49-0.75,7.12-1.37,10.86-1.87c3.8-0.37,7.32-0.99,10.56-1.86c-4.59,11.51-8.12,23.61-10.56,36.31
		c-2.49,12.98-6.37,25.59-11.61,37.82c0,0.25,0.38,0.75,1.12,1.5c0.75,0.75,1.75,1.75,3,3c6.24-2.74,11.49-7.61,15.73-14.6
		c4.25-6.99,9.24-11.61,14.98-13.86c0.75,0.5,1.25,1.06,1.5,1.69c0.25,0.63,0.44,1.19,0.56,1.68c0.13,0.5,0.44,1.31,0.94,2.43
		c0.5,1.12,0.75,1.94,0.75,2.43v0.75c0.25,0,0.44,0,0.56,0c0.13,0,1.44-1.25,3.93-3.75l8.24-7.11c0.75,3.74,1.12,7.24,1.12,10.49
		c0,8.49-2.74,15.48-8.24,20.97c-0.75,1.25-1.74,2.25-3,3c-3.99,3-7.74,6.43-11.23,10.3c-3.49,3.87-7.92,7.49-13.29,10.86
		c-5.37,3.37-13.17,5.06-23.41,5.06c-3.74,0-5.62,1.12-5.62,3.37v0.37c0.5,2.25,2,4.87,4.49,7.86c7.99,7.49,11.98,13.98,11.98,19.47
		c0,1.5-0.25,3-0.75,4.49c6.24,2.5,12.73,3.75,19.47,3.75c6.74,0,11.74,1.37,14.98,4.12c5.99,6.24,10.36,9.55,13.11,9.92
		c2.75,0.37,4.75,0.56,5.99,0.56c3,0,5.86-0.5,8.61-1.5l5.62-1.5c22.97-3.25,45.81-6.86,68.53-10.86
		c47.68-8.99,97.61-15.6,149.79-19.85c3.49,0,6.49-0.5,8.99-1.5c0.99-0.25,1.5-0.75,1.5-1.5c0-3.24,1.56-5.68,4.68-7.3
		c3.12-1.62,6.55-2.93,10.3-3.93c7.49-1.74,11.23-3.87,11.23-6.37v-2.62c0-3.99,1.5-6.49,4.49-7.49c3-0.99,6.24-1.5,9.74-1.5
		l4.12,0.37c3.24,0,6.18-0.12,8.8-0.37c2.62-0.25,4.68-0.99,6.18-2.25c1.5-1.25,3.49-2.37,5.99-3.37c2.49-0.99,4.68-2.18,6.55-3.56
		c1.87-1.37,2.93-3.31,3.18-5.8c-6.24-1.25-11.74-1.87-16.48-1.87c-7.99,0-13.99,1.63-17.98,4.87c-5.75,3-12.86,4.49-21.35,4.49
		c-2,0-3.87,0.13-5.62,0.37h-8.61c-2.75-0.25-5.37-1.62-7.86-4.12c-0.75-0.75-1.12-1.37-1.12-1.87c0-0.75,1.18-1.56,3.56-2.43
		c2.37-0.87,3.56-1.81,3.56-2.81c0-0.5-0.37-1.25-1.12-2.25c-5.99,0-11.98,0.63-17.97,1.87c-4.49,1-9.24,1.5-14.23,1.5
		c-3.5,0-6.74-0.87-9.74-2.62c-6.99-5.24-11.86-7.99-14.6-8.24c-2.75-0.25-4.49-0.38-5.24-0.38c-3.5,0-6.43,0.32-8.8,0.94
		c-2.38,0.63-4.56,1.06-6.55,1.31c-22.22,2.25-48.68,5.62-79.39,10.11l-2.62,0.37c-4.75,0.75-10.74,1.12-17.98,1.12
		c-5,0-10.86-0.62-17.6-1.87c6.49-16.23,25.59-53.93,57.3-113.09c-0.75,8.49-1.12,16.98-1.12,25.46c0,10.74,0.25,16.17,0.75,16.29
		c0.5,0.13,1,0.19,1.5,0.19h0.37c14.73-23.72,25.96-49.06,33.7-76.02l6.37-17.98c5.93-13.78,9.97-28.01,12.13-42.69
		c11.87,1.07,23.92,1.95,36.18,2.61l-4.12,11.98c3.5,0.75,19.1,2.87,46.81,6.37c-2.5,7.24-6.49,13.48-11.98,18.72l-1.12,1.5
		c-11.23,12.73-22.09,25.46-32.58,38.2l-1.5,1.87c-5.74,6.74-8.61,11.98-8.61,15.73c0,2,0.63,3.87,1.87,5.62
		c2.5,3.74,3.75,7.12,3.75,10.11c0,3.5-2.12,8.37-6.37,14.6c-0.25,0.75-0.87,1.63-1.87,2.62c-1.25,2-1.87,3.5-1.87,4.49
		c0,0.5,0.38,1.12,1.12,1.87c-6.24,7.99-12.11,16.1-17.6,24.34c-8.48,13.73-18.72,26.96-30.71,39.7v0.37h1.12
		c26.96-14.98,51.68-31.58,74.15-49.81c0,5.24-1.25,9.99-3.75,14.23c4-0.99,7.99-1.5,11.98-1.5c6.74,0,10.99-1.12,12.73-3.37
		c5.99-6.99,12.6-13.54,19.85-19.66c7.24-6.11,13.73-12.42,19.47-18.91c32.21-39.94,55.05-69.28,68.53-88l0.75-0.75
		c5.49-7.49,10.11-12.92,13.86-16.29c3.74-3.37,8.8-5.86,15.17-7.49c6.37-1.62,16.29-3.31,29.77-5.06c6.49-1,11.73-1.5,15.73-1.5
		c4.24,0,7.43,0.56,9.55,1.69c2.12,1.12,3.18,3.56,3.18,7.3c0,2-0.37,4.25-1.12,6.74c-2.75,12.73-6.12,25.46-10.11,38.2
		c-3,9.49-5.62,18.85-7.86,28.09c-2.25,9.24-3.87,18.23-4.87,26.96c-1.5,12.98-3,21.41-4.49,25.28c-1.5,3.87-2.5,7.55-3,11.05
		c-1,3-2.12,5.87-3.37,8.61c-0.5,1-0.75,1.87-0.75,2.62c0,2.25,1.5,3.87,4.49,4.87c0.99,7.49,2.37,14.6,4.12,21.35
		c0,0.25,0.19,0.37,0.56,0.37c0.37,0,0.68,0,0.94,0c0.75,0.25,1.37,0.13,1.87-0.37c3.49-9.48,8.86-18.6,16.1-27.34
		c3,15.98,5.24,32.02,6.74,48.12s3.75,32.27,6.74,48.5c5.99-3.75,9.92-7.24,11.8-10.49c1.87-3.24,2.93-6.37,3.18-9.36l0.75-1.87
		c2.25-8.48,5.74-16.72,10.49-24.72c2.49-4.24,4.74-8.48,6.74-12.73c1.25-2.74,4.12-5.11,8.61-7.11c5.24-3,7.86-5.62,7.86-7.86
		c0-4.74,1.25-9.36,3.74-13.86c0.5,10.24,1.87,15.61,4.12,16.1h4.49c1.5-0.5,2.49-1.25,3-2.25c8.99-15.97,15.92-32.7,20.78-50.18
		c4.87-17.47,8.92-35.07,12.17-52.8c3.24-15.97,6.86-31.46,10.86-46.44c6.74-25.21,11.54-50.3,14.42-75.27
		C2752.77,273.6,2754.96,248.38,2756.45,222.91z M2377.85,151.01c0.5-6.24,1.56-12.29,3.18-18.16c1.62-5.86,5.18-11.05,10.67-15.54
		v3.37c0,16.48-5.12,30.84-15.35,43.07C2377.1,159.5,2377.6,155.26,2377.85,151.01z M1894.95,278.34c-0.38,0.5-0.69,0.88-0.94,1.12
		l-8.24,16.85c-5.49,12.73-12.73,25.47-21.72,38.2l2.62-8.24c5.74-15.97,11.98-31.95,18.72-47.93c1-0.25,2-0.56,3-0.94
		c0.99-0.37,2.37-0.56,4.12-0.56c1.69,0,2.56-0.35,2.61-1.06c0.01,0.05,0.01,0.09,0.01,0.12c0,0.13,0.12,0.32,0.38,0.56
		C1895.51,277.21,1895.32,277.84,1894.95,278.34z M1898.51,262.23c-2,3.5-3.25,6.99-3.74,10.49c0,0.75,0.06,1.44,0.19,2.06
		c0.08,0.41,0.13,0.7,0.16,0.89l-1.47-2.58c-1.5-2-2.25-4.49-2.25-7.49l7.12-14.23l4.12-3.74
		C1902.63,252.87,1901.25,257.74,1898.51,262.23z M2019.84,205.12c4.74-9.11,9.86-15.92,15.35-20.41l-2.25,9.74l-8.61,13.86
		c-5,8.49-10.11,16.85-15.35,25.09C2011.47,223.66,2015.09,214.24,2019.84,205.12z M2023.58,230.78c-3,9.74-7.74,19.35-14.23,28.84
		l-0.37-0.37L2023.58,230.78z M2264.38,351.73c-7.99,18.98-15.29,38.01-21.91,57.11c-6.62,19.1-11.05,38.89-13.29,59.36l-8.99,16.48
		c-4.25-3.49-6.5-5.93-6.74-7.3c-0.25-1.37-0.37-2.18-0.37-2.43c0-1.74,0.5-3.49,1.5-5.24c0.5-1.25,1.25-2.56,2.25-3.93
		c0.99-1.37,1.69-2.68,2.06-3.93c0.38-1.25,0.56-2.37,0.56-3.37c0-3.49-2.5-7.74-7.49-12.73c-1.75-2-2.62-4.12-2.62-6.37
		c0-2,0.75-4.12,2.25-6.37c3.24-4.99,7.74-9.11,13.48-12.36c0.25-4.24,3.99-14.17,11.23-29.77c7.24-15.6,15.79-33.08,25.65-52.43
		c9.86-19.34,18.91-37.01,27.15-52.99C2281.85,307.92,2273.61,330.01,2264.38,351.73z M2284.6,172.73
		c-14.48,36.95-34.52,86.64-60.1,149.05c-23.75,57.92-43.56,104.43-59.46,139.55c-6.79,0.71-13.5,1.49-20.12,2.37
		c-16.48,2.75-32.95,4.12-49.43,4.12c-9.99,0-19.98-0.5-29.96-1.5c0.75-3.74,2.93-6.18,6.55-7.3c3.62-1.12,10.05-2.3,19.29-3.56
		c20.97-0.25,31.7-0.62,32.21-1.12l-0.75-1.12l-20.97-4.12c-0.75-0.75-1.37-1.12-1.87-1.12c-3.25,0-6.37-0.25-9.36-0.75
		c-1.5,0-2.38-0.12-2.62-0.37c-5.24-0.75-10.36-1.62-15.35-2.62c-10.74-2.74-19.85-4.12-27.34-4.12c-6.24,0-12.61,1.5-19.1,4.49
		c-14.48,0.25-28.84,0.88-43.07,1.87c-10.49,0.5-17.73,0.75-21.72,0.75c-5.99,0-15.23,0.63-27.71,1.87l13.86-30.33
		c12.48-26.96,23.22-54.42,32.21-82.39l0.38-0.37c0-0.25-0.13-0.37-0.38-0.37c-0.25,0-0.5-0.12-0.75-0.37l-0.75,0.37
		c-4.25,6.74-16.35,24.72-36.33,53.93c8.74-17.98,16.35-36.07,22.84-54.3c1-4.24,3.05-8.17,6.18-11.8c3.12-3.62,9.18-5.8,18.16-6.55
		c20.22-1.5,35.58-3.37,46.06-5.62c8.74,1,14.73,1.87,17.97,2.62c5.49,1,11.24,1.5,17.23,1.5c18.72,0,37.2-2.49,55.42-7.49
		c9.74-2.49,19.6-4.49,29.58-5.99c8.48,0,14.73-1.12,18.72-3.37c11.73-6.49,24.72-9.74,38.95-9.74c4.74,0,9.74,0.37,14.98,1.12
		c-12.73-3.74-25.84-5.62-39.32-5.62c-4,0-7.99,0.13-11.98,0.37c-4,0.25-7.86,0.37-11.61,0.37c-14.23,0-27.84-1.87-40.82-5.62
		c5.24-2.74,11.85-4.12,19.85-4.12c9.98,0,17.98-2,23.97-5.99l-19.85-0.37c-20.73-0.5-37.07-1.62-49.06-3.37
		c-6.24-0.99-9.87-1.74-10.86-2.25c-1-0.5-1.81-1-2.43-1.5c-0.63-0.5-1.31-0.87-2.06-1.12l-11.61-0.75h-12.36
		c-11.74,0-18.72-0.68-20.97-2.06c-2.25-1.37-3.37-3.43-3.37-6.18c0-2.74,3.99-16.1,11.98-40.07l6.37-18.72
		c1.25-4.74,3.99-8.43,8.24-11.05c4.24-2.62,10.86-4.18,19.85-4.68l10.11-0.37c0.25,0.25,1,0.37,2.25,0.37
		c0.99,0.5,3.99,0.75,8.99,0.75c21.72-0.25,37.76-0.81,48.12-1.69c10.36-0.87,21.78-2.31,34.27-4.31l35.2-4.87
		c5.24,0,10.11-0.62,14.6-1.87c2.74-0.75,4.12-2.12,4.12-4.12V160c0-3.49,1.43-5.74,4.31-6.74c2.87-0.99,7.43-1.5,13.67-1.5
		l2.62-0.37c7.24-0.25,14.54-1.06,21.91-2.43c3.11-0.58,6.25-1.52,9.43-2.79c-0.54,2.22-1.01,4.45-1.38,6.73
		C2288.72,159.62,2286.85,166.24,2284.6,172.73z M2302.58,276.84l-1.12,2.25l-0.38-17.23l4.87-9.74c1.5,3.25,2.25,6.37,2.25,9.36
		C2308.19,265.98,2306.32,271.1,2302.58,276.84z M2646.73,291.82c-2,4-4.75,6.18-8.24,6.55c-3.5,0.37-6.62,0.56-9.36,0.56
		c-2.5,0-5.12-0.12-7.86-0.37c-2.75-0.25-6.62-0.37-11.61-0.37c-0.5-1.25-0.75-2.25-0.75-3c0-2.25,1.31-4.68,3.93-7.3
		c2.62-2.62,3.93-4.93,3.93-6.93c0-0.99-0.63-1.62-1.87-1.87c-1.5,0-2.87,0.19-4.12,0.56c-1.25,0.37-2.38,0.56-3.37,0.56h-0.75
		c-1.25-0.5-1.87-0.99-1.87-1.5c0-0.75,0.87-2,2.62-3.74l1.12-0.75c1.74-1.5,3.62-2.87,5.62-4.12h0.37
		c0.99-0.99,1.74-2.37,2.25-4.12c1.25-3.49,4.74-7.12,10.49-10.86v2.25c0,5.24-3.37,8.61-10.11,10.11c-1,1-1.56,1.69-1.69,2.06
		c-0.13,0.37-0.19,1.31-0.19,2.81c0,4.75,0.38,7.12,1.12,7.12l1.5-0.75c6.74-4.99,12.48-10.61,17.23-16.85
		c5.49-7.49,13.48-14.6,23.97-21.35c0.5,3.25,0.75,6.49,0.75,9.74C2659.84,260.49,2655.47,274.34,2646.73,291.82z"/>
	<path d="M3570.21,189.58c0-1.74,0.25-3.87,0.75-6.37l0.37-3c0-5.49-3.62-11.36-10.86-17.6l-0.75,4.12
		c-8.24-13.23-21.1-24.96-38.57-35.2h-1.12c-0.25,0.25-0.37,0.44-0.37,0.56c0,0.13,0,0.32,0,0.56v0.37
		c11.98,8.24,20.16,16.73,24.53,25.46c4.36,8.74,6.55,18.6,6.55,29.58c-5.99-12.98-15.61-26.96-28.83-41.94
		c-8.74-9.74-20.47-18.1-35.2-25.09c-30.71-15.23-64.54-23.46-101.49-24.72c-7.49-0.99-14.86-1.5-22.09-1.5
		c-9.74,0-19.47,0.88-29.21,2.62c-17.48,3-34.21,7.37-50.18,13.11c-1.25,0.25-2.5,0.56-3.75,0.94c-1.25,0.37-2.62,0.56-4.12,0.56
		c-4.49,0.75-7.11,1.37-7.86,1.87c-0.75,0.5-1.12,1.12-1.12,1.87v0.37l0.75,0.37l-14.23,5.24l-0.38,0.37l0.75,0.37
		c13.48-3,21.03-4.55,22.66-4.68c1.62-0.12,3.56-0.19,5.8-0.19c1.74,0.25,3.37,1.25,4.87,3c-4.75,2.25-9.99,3.87-15.73,4.87
		c-11.49,2.5-22.09,5.24-31.83,8.24c-12.23,1.25-22.04,3-29.4,5.24c-6.93,2.11-11.79,5.79-14.62,11c-0.69-3.68-1.74-5.85-3.16-6.5
		c4.99-5.74,9.11-12.23,12.36-19.47c2.49-7.99,3.74-16.1,3.74-24.34c0-4.24-0.32-8.55-0.94-12.92c-0.63-4.37-0.94-8.67-0.94-12.92
		c0-7.24,0.75-14.35,2.25-21.35v-0.37c0-0.25-0.25-0.56-0.75-0.94c-0.5-0.37-1-0.56-1.5-0.56c-0.75,0.25-1.25,0.63-1.5,1.12
		c-9.24,17.48-16.48,35.2-21.72,53.18c-5,12.24-13.24,23.1-24.72,32.58l-11.61,11.23c2.49-13.98,5.86-27.58,10.11-40.82
		c0-1.25-0.75-1.87-2.25-1.87c-0.75,0.25-1.38,0.63-1.87,1.12c-11.74,17.23-22.6,34.96-32.58,53.18c-2.5,3-5.93,11.11-10.3,24.34
		c-0.92,2.78-2,5.93-3.23,9.4c-1.11,0.49-2.22,0.98-3.32,1.46c-0.25,0-0.37,0.13-0.37,0.37l0.37,0.75h0.75
		c0.6-0.15,1.2-0.29,1.8-0.43c-4.61,12.86-11.2,30.1-19.78,51.74c-8.49,13.48-14.23,27.71-17.23,42.69
		c-7.49,18.72-11.49,30.33-11.98,34.83c2.74-2.74,4.99-5.37,6.74-7.86l-6.37,28.46c-0.25,0-0.37,0.13-0.37,0.37
		c-1.5-0.75-2.38-1.5-2.62-2.25v-3l0.37-2.62c0-1.74-1.75-2.87-5.24-3.37c-2,3.74-3.12,6.62-3.37,8.61v3c0,2.75,1.37,5.87,4.12,9.36
		c0.5,0.75,0.75,1.37,0.75,1.87c0,0.5-0.5,1.07-1.5,1.69c-1,0.63-2.69,1.25-5.06,1.87c-2.38,0.63-4.68,1.31-6.93,2.06
		c-9.49-26.46-16.92-45.81-22.28-58.05c-5.37-12.23-9.55-20.09-12.55-23.59l-0.37,4.49c0,5.49,1.12,10.61,3.37,15.35
		c3,9.99,4.49,15.61,4.49,16.85c-0.25,2.25-2.38,4.37-6.37,6.37h0.38v0.75c8.24,4.25,13.04,8.86,14.42,13.86
		c1.37,5,2.06,11.23,2.06,18.72v6.37c-4.25-5.24-8.99-14.66-14.23-28.27c-5.24-13.6-9.61-27.02-13.11-40.26
		c-3.5-13.23-5.24-23.22-5.24-29.96c1.5,0,2.68,0.32,3.56,0.94c0.87,0.63,1.62,1.44,2.25,2.43c0.62,1,1.37,1.69,2.25,2.06
		c0.87,0.37,1.68,0.56,2.43,0.56l3.37-0.37l-0.37-1.12c-0.75-3.49-2.5-6.61-5.24-9.36c2.49-2.25,3.87-4.87,4.12-7.86
		c0-3.24-1.25-5.43-3.74-6.55c-2.5-1.12-5.43-1.87-8.8-2.25c-3.37-0.37-6.55-1.06-9.55-2.06c-3-0.99-5.37-2.87-7.11-5.62
		c-0.5-2.49-1.75-4.87-3.74-7.12l-1.12-2.25c-4.49-10.98-8.37-22.22-11.61-33.7c-2.25-7.99-4.87-15.97-7.86-23.97
		c-1-3-3.25-5.49-6.74-7.49c-0.75-7.24-2.12-14.48-4.12-21.72c0-0.25-0.25-0.5-0.75-0.75h-1.12l-1.12,0.75l-4.87,12.73l-0.37-15.73
		c0-9.98,1.5-19.6,4.49-28.84v-0.37c0-0.75-0.5-1.12-1.5-1.12c-0.5,0-0.88,0.13-1.12,0.37c-5.49,7.99-11.49,15.61-17.98,22.84
		l-11.61,13.48l-4.49-7.86c-1-1.25-2.75-1.87-5.24-1.87c-2.5,0-4.44,0.75-5.8,2.25c-1.37,1.5-2.56,3.25-3.56,5.24
		c-0.25-0.75-0.63-1.62-1.12-2.62c-0.5-0.99-0.88-1.87-1.12-2.62c-0.25-0.75-1-1.12-2.25-1.12c-1.25,0-1.87,0.5-1.87,1.5l2.62,11.98
		l-2.62,4.12v0.37c-14.98,16.23-26.21,33.96-33.7,53.18c-3.74,8.74-7.24,18.48-10.49,29.21c-4,7.74-8.61,20.47-13.86,38.2
		c-5.24,16.73-12.11,36.58-20.6,59.54c-7.24,12.73-11.85,24.97-13.86,36.7l-0.37,1.87c-0.99,2.5-1.81,4.37-2.43,5.62
		c-0.62,1.25-1.18,2.19-1.69,2.81c-0.5,0.63-1.06,1.19-1.69,1.69c-0.62,0.5-1.18,1.75-1.69,3.74c-0.75,3.5-1.5,8.61-2.25,15.35
		c-0.75-0.5-1.12-1.37-1.12-2.62v-3.37c-0.5-1.5-2.37-2.49-5.62-3c0,0.5-0.12,0.88-0.37,1.12c-1.5,3-2.25,5.87-2.25,8.61
		c0,2.75,1.63,5.75,4.87,8.99c0.75,0.5,1.12,1,1.12,1.5c0,0.5-0.56,1.06-1.69,1.69c-1.12,0.63-3.05,1.25-5.8,1.87
		c-2.74,0.63-5.49,1.56-8.24,2.81c-2.74,1.25-4.12,3.18-4.12,5.8c0,2.62-0.56,5.06-1.68,7.3c-1.12,2.25-2.43,4.62-3.93,7.11
		c-3,4-4.68,7.12-5.05,9.36c-0.38,2.25-0.56,3.62-0.56,4.12c0,3.74,2.25,7.62,6.74,11.61c0.5,0.5,0.75,1.12,0.75,1.87
		c0,1-1.25,3.5-3.74,7.49l-2.62,4.12c-1.74,2.5-2.62,4.62-2.62,6.37c0,1.5,0.63,3,1.87,4.49c8.49-1.5,14.6-2.25,18.35-2.25
		c3.75,0.25,6.37,1.63,7.86,4.12c-1.74,7.49-3.12,15.11-4.12,22.84c-2,17.23-6.37,34.21-13.11,50.93v0.37c0,0.25,0.25,0.5,0.75,0.75
		c0.5,0.25,1,0.37,1.5,0.37c0.75,0,1.38-0.25,1.87-0.75c6.99-12.98,14.86-25.71,23.59-38.2c9.99-13.73,18.72-27.83,26.21-42.32
		c2.49-4.99,5.49-10.11,8.99-15.35l-0.37,4.12l-0.38,0.37c-0.75,1.75-1.63,3.37-2.62,4.87c0,0.75,0.5,1.12,1.5,1.12h0.75
		c-0.75,5.75-1.63,11.36-2.62,16.85l0.75,1.12c1.5,0,2.49-0.25,3-0.75c6.24-11.48,13.54-23.59,21.91-36.32
		c8.36-12.73,16.16-25.78,23.41-39.13c7.24-13.35,12.11-26.65,14.6-39.88l5.62-14.6c6.24-15.73,11.17-29.15,14.79-40.26
		c3.62-11.11,7.43-24.77,11.42-41.01l3-4.12c3.24,12.24,8.11,23.84,14.6,34.83l5.62,14.23c4.74,11.98,9.36,19.35,13.86,22.09
		c2,1,4.24,2.81,6.74,5.43c2.49,2.62,5.74,7.68,9.74,15.17c2.25,26.72,14.85,51.56,37.82,74.52c3.99,13.48,8.74,26.72,14.23,39.7
		c5.49,12.98,9.74,24.84,12.73,35.58c-0.5,1.5-1.25,3.12-2.25,4.87c0,0.5,0.19,0.88,0.56,1.12c0.38,0.25,0.81,0.37,1.31,0.37
		c1.25,0,1.99-0.19,2.25-0.56c0.25-0.38,0.43-0.68,0.56-0.94c0.12-0.25,0.31-0.62,0.56-1.12l2.25,0.37c3,0,4.49-1.12,4.49-3.37
		v-4.87l-0.37-2.62c0.99-1.5,1.93-3.05,2.81-4.68c0.87-1.62,1.93-3.31,3.18-5.06l1.12,1.12c2.74,8.24,6.86,16.48,12.36,24.72
		c0.25,0.5,0.75,0.75,1.5,0.75c1.25,0,2.12-0.37,2.62-1.12c0.5-0.75,1.12-1.87,1.87-3.37c0.5,0.25,0.94,0.81,1.31,1.69
		c0.37,0.88,0.94,1.31,1.69,1.31c1.5,0,2.25-0.37,2.25-1.12v-0.37c-0.25-1.5-0.63-2.81-1.12-3.93c-0.5-1.12-0.88-2.18-1.12-3.18
		c9.48-17.23,18.35-34.58,26.59-52.05c0.25,5,0.37,10.11,0.37,15.35l-0.37,14.98c0,1.5,1.12,2.25,3.37,2.25c1.74,0,2.74-0.5,3-1.5
		c5.74-17.23,12.73-34.2,20.97-50.93c6.74-13.73,12.67-27.52,17.79-41.38c5.11-13.86,8.17-28.02,9.18-42.5
		c0.99-1.74,1.87-3.62,2.62-5.62l2.62-5.24c11.24-26.21,20.97-46.44,29.21-60.67l3-5.24c6.49-10.23,11.11-18.16,13.86-23.78
		c2.74-5.62,4.24-11.42,4.49-17.41c0-5.74-0.5-13.98-1.5-24.72l-0.75-8.24c0-0.5-0.25-0.87-0.75-1.12c-1.25,0-2.12,0.25-2.62,0.75
		c-7.49,18.72-16.48,36.83-26.96,54.3l7.11-26.21c13.23-18.72,21.35-36.33,24.34-52.8c0.91-4.99,1.6-9.58,2.09-13.8
		c7.29-1.58,14.58-3.21,21.87-4.93c9.23-2,18.97-3.87,29.21-5.62c7.24-0.5,13.98-1.5,20.22-3c2.25-0.5,4.36-0.75,6.37-0.75
		c4.49,0,9.3,1.37,14.42,4.12c5.11,2.75,9.3,4.12,12.54,4.12c2.49,0,5.24-0.75,8.24-2.25c11.23-5.24,23.97-8.36,38.2-9.36l8.61-0.75
		c6.24-0.99,12.6-1.5,19.1-1.5c4.49,0,8.99,0.25,13.48,0.75c20.22,2.5,38.82,7.62,55.8,15.35l1.5,0.37c4.74,2,7.42,3.81,8.05,5.43
		c0.62,1.63,0.94,2.94,0.94,3.93c0,1.5-0.38,3.12-1.12,4.87c-16.73-10.49-36.08-16.6-58.05-18.35c-6.74-1.25-14.6-1.87-23.59-1.87
		h-0.38v0.37l4.49,0.37c14.73,3,26.78,8.18,36.14,15.54c9.36,7.37,17.66,15.92,24.9,25.65c6.24,9.24,9.36,19.85,9.36,31.83
		c0,6.49-0.88,13.24-2.62,20.22c-7.99,33.21-24.22,68.16-48.68,104.86c-0.75,1.5-1.5,2.75-2.25,3.74
		c-21.72,35.95-55.05,67.66-99.99,95.12c-32.71,21.22-63.04,31.83-91,31.83c-7.49,0-15.35-0.62-23.59-1.87
		c-0.75,1.25-1.12,2.38-1.12,3.37c0,0.75,0.5,1.63,1.5,2.62c1,1,2.62,2,4.87,3c2.25,1,3.93,2,5.06,3c1.12,1,1.68,2.12,1.68,3.37
		l-0.37,2.25c-4.99,1.5-9.86,3.25-14.6,5.24c-8.24,4.25-17.47,6.74-27.71,7.49l1.12-0.37c-0.25-0.25-0.75-0.37-1.5-0.37v0.75
		c-23.22,10.49-47.81,19.35-73.77,26.59l-27.34,8.61c0.75,1,1.75,1.63,3,1.87c1.25,0.25,2.69,0.37,4.31,0.37
		c1.63,0,3.06,0.13,4.31,0.37c1.25,0.25,2.25,1,3,2.25c-35.7,9.24-70.15,20.35-103.36,33.33c-4.49,1.75-6.74,2.87-6.74,3.37
		c0,0.75,0.5,1.12,1.5,1.12h1.12c27.71-6.99,60.54-11.73,98.49-14.23c22.47-1.74,44.56-4.12,66.28-7.11c0,1.25,0.25,2.25,0.75,3
		h8.61l-6.37,2.62l0.37,0.37l35.95-8.99c-24.46,9.74-49.18,17.6-74.15,23.59c-0.25,0-0.37,0.37-0.37,1.12h1.12
		c33.96-2.74,65.79-7.74,95.49-14.98c1.25,1.25,2.87,1.87,4.87,1.87c2,0,4.25-0.75,6.74-2.25c3.5-2,6.74-3.62,9.74-4.87
		c13.23-3.49,26.83-7.49,40.82-11.98l32.58-10.86c2.74-0.75,5.49-1.31,8.24-1.69c2.74-0.38,5.49-1.18,8.24-2.43
		c0.25-0.25,0.62-0.37,1.12-0.37c73.65-29.96,132.81-63.04,177.51-99.24c0.25,0,0.99-0.62,2.25-1.87c0.5-0.25,0.75-0.87,0.75-1.87
		c0-0.5-0.5-1.12-1.5-1.87c-2,0-3.56,0.25-4.68,0.75c-1.12,0.5-2.31,1.12-3.56,1.87c-3,2-5.49,3-7.49,3c-1.25,0-2.75-0.25-4.49-0.75
		c7.74-9.98,17.23-19.1,28.46-27.34c5.74-4.49,11.36-9.23,16.85-14.23c2.74-2.74,5.62-5.37,8.61-7.86
		c9.74-8.74,18.6-17.79,26.59-27.15c7.99-9.36,12.98-19.53,14.98-30.52c2.74-13.48,6.99-26.46,12.73-38.95
		c3-6.49,5.62-13.11,7.86-19.85c4.49-12.48,6.74-26.71,6.74-42.69l1.12-18.72l0.37-10.49
		C3574.33,208.93,3572.96,199.07,3570.21,189.58z"/>
	<path d="M3236.92,224.41c1.25-2.74,1.87-5.62,1.87-8.61l-0.38-3c-5,3.74-8.61,7.49-10.86,11.23c-3,5.24-6.99,16.35-11.98,33.33
		c-3,10.99-6.74,22.22-11.24,33.7c-10.73,27.71-17.23,54.8-19.47,81.26l-1.87,3c-11.73,17.98-17.6,37.33-17.6,58.04
		c0,9.74,1.25,19.72,3.75,29.96l19.47-20.97c1-1.25,1.87-2.62,2.62-4.12c1.5-4.24,4.24-6.37,8.24-6.37l4.12,0.37
		c4.24,1.25,6.49,3.12,6.74,5.62v1.87c0,2.25-0.63,4.49-1.87,6.74l-0.75,0.75c-0.5,0.5-0.75,1.5-0.75,3c0,2.25,2.62,4.75,7.86,7.49
		c22.47-41.69,45.69-82.76,69.65-123.21l16.1-26.96c6.74-12.23,10.73-18.35,11.98-18.35c0.25,0,0.38,0.25,0.38,0.75
		c0,1.25-0.88,4.49-2.62,9.74l-3,11.61c-1.25,4.75-3.12,9.36-5.62,13.86c-4.49,7.99-6.74,14.98-6.74,20.97
		c0,3.5,0.62,6.99,1.87,10.49l8.24-16.85c5.24-11.23,10.61-21.97,16.1-32.21c3-5.49,5.74-10.98,8.24-16.48h1.87
		c3.49-7.74,6.99-15.85,10.49-24.34l10.11-18.72c5.49-9.74,8.24-16.48,8.24-20.22c0-2-0.56-4.43-1.68-7.3
		c-1.12-2.87-3.93-7.8-8.43-14.79l-0.38-1.5v-1.12c0-2.25-1.12-3.87-3.37-4.87c-5.75,1.5-9.87,5-12.36,10.49
		c-2.5,5.49-6.37,9.12-11.61,10.86c-3-1.74-4.49-3.99-4.49-6.74l0.75-5.24c0-0.99-0.19-2.06-0.56-3.18
		c-0.37-1.12-2.06-2.43-5.05-3.93c-6.24,3.25-13.86,6.43-22.84,9.55c-8.99,3.12-17.48,6.68-25.47,10.67
		c-7.99,4-13.24,8.99-15.73,14.98c-1,2.25-3.37,3.87-7.12,4.87c-1.75,0.5-3.87,0.75-6.37,0.75c-2.25,0-4.87-0.25-7.86-0.75
		l3.37-5.24C3233.18,231.78,3235.17,228.15,3236.92,224.41z"/>
</g>
</svg>
