<?xml version="1.0" encoding="utf-8"?>
<!-- Generator: Adobe Illustrator 27.8.0, SVG Export Plug-In . SVG Version: 6.00 Build 0)  -->
<svg version="1.1" id="Layer_1" xmlns="http://www.w3.org/2000/svg" xmlns:xlink="http://www.w3.org/1999/xlink" x="0px" y="0px"
	 viewBox="0 0 3779.56 647.11" style="enable-background:new 0 0 3779.56 647.11;" xml:space="preserve">
<g>
	<path d="M1587.82,362.26c-1.5,0.5-2.25,1.5-2.25,3.01l0.38,4.51c-0.25,0.75-1.26,1.38-3.01,1.88c-6.76-4.26-11.59-8.46-14.47-12.59
		c-2.88-4.13-4.45-7.2-4.7-9.21v-0.38c0-1.25,4.63-3.25,13.9-6.01c8.51-2,17.03-5.01,25.55-9.02c8.01-4.26,13.02-7.39,15.03-9.39
		c1-1,2.19-2.31,3.57-3.95c1.37-1.63,4.44-4.7,9.21-9.21c11.77-6.26,22.48-14.53,32.13-24.8c9.64-10.27,17.22-20.04,22.73-29.31
		c9.77-19.54,14.66-39.2,14.66-59c0-6.26-0.5-12.4-1.5-18.41c0-2,0.38-4.13,1.13-6.39c0.5-1.25,0.75-2.63,0.75-4.13
		c0-5.26-3.14-10.77-9.39-16.53c-0.5,1.26-0.88,2.63-1.13,4.13c-7.02-13.53-18.92-25.3-35.7-35.32c0-0.25-0.13-0.38-0.38-0.38
		c-0.25,0-0.5,0.06-0.75,0.19c-0.25,0.13-0.38,0.32-0.38,0.56v0.75c11.52,8.27,18.85,16.41,21.98,24.43
		c3.13,8.02,4.7,15.41,4.7,22.17c0,3.01-0.25,6.01-0.75,9.02c-1-3.76-2.51-7.52-4.51-11.27c-5.51-10.52-12.28-20.73-20.29-30.63
		c-8.02-9.89-19.04-18.35-33.07-25.36c-29.31-15.53-62.51-23.8-99.58-24.8c-7.77-1.25-15.54-1.88-23.3-1.88
		c-22.3,0-48.85,5.39-79.66,16.16c-1.26,0.25-2.57,0.44-3.95,0.56c-1.38,0.13-2.82,0.44-4.32,0.94c-6.01,0.75-9.02,2.01-9.02,3.76
		v0.38c0.25,0,0.38,0.13,0.38,0.38l-15.03,5.26c0,0.25,0.06,0.44,0.19,0.56c0.12,0.13,0.31,0.19,0.56,0.19
		c7.01-1.75,14.15-3.25,21.42-4.51c0.75,0,1.56-0.12,2.44-0.38c0.88-0.25,1.81-0.38,2.82-0.38c3.01,0,5.26,1.13,6.76,3.38
		c-5.01,2.01-10.4,3.51-16.16,4.51c-12.02,2.51-22.92,5.26-32.69,8.27l-7.14,1.13c-8.52,1-16.41,2.57-23.67,4.7
		c-3.57,1.05-6.63,2.51-9.17,4.38c0.76-7.08,1.8-14.05,3.16-20.91c1.75-8.89,5.26-17.6,10.52-26.12c0-1-0.5-1.63-1.5-1.88l-1.5,0.38
		c-11.03,5.01-19.6,11.09-25.74,18.23c-6.14,7.14-11.34,14.72-15.59,22.73c-1.26,1.5-2.57,2.82-3.95,3.95
		c-1.38,1.13-2.63,2.38-3.76,3.76c-1.13,1.38-2.51,2.69-4.13,3.95c-1.63,1.26-3.7,2.01-6.2,2.25c-10.52,1-19.42,3.38-26.68,7.14
		c6.26-11.77,14.28-22.92,24.05-33.44c0.25-0.25,0.38-0.62,0.38-1.13c0-0.75-0.5-1.25-1.5-1.5l-2.63,0.38
		c-31.57,12.53-55.87,29.81-72.9,51.86l-1.13-0.38c-7.77,9.52-14.41,19.16-19.92,28.93c-6.26,8.52-11.53,17.29-15.78,26.3
		c-6.52,11.03-15.03,21.42-25.55,31.19c-19.79,17.79-38.83,36.2-57.12,55.24l-24.8,24.8c-6.26-5.51-10.28-12.65-12.02-21.42
		c-8.52-27.81-14.91-55.86-19.17-84.17c-4.01-24.55-9.27-48.97-15.78-73.28l-1.13-4.51c-0.5-2.75-1.32-5.45-2.44-8.08
		c-1.13-2.63-3.07-4.88-5.82-6.76c-2.76-1.88-5.64-2.82-8.64-2.82c-3.01,0-5.95,0.32-8.83,0.94c-2.88,0.63-5.7,0.94-8.46,0.94h-2.63
		c-2.25-1.5-3.38-4.26-3.38-8.27v-1.13c0-2-0.56-3.95-1.69-5.82c-1.13-1.88-4.32-3.19-9.58-3.95c-4.01,4.01-6.27,8.9-6.76,14.66
		c-0.25,2.51-0.88,4.89-1.88,7.14c-2.01,6.52-5.89,9.77-11.65,9.77l-3.76-0.38c-3.76-0.75-5.64-2-5.64-3.76
		c0-1.25,0.75-3.13,2.25-5.64c2.5-3.76,3.76-7.01,3.76-9.77c0-2.5-1.88-4.89-5.64-7.14c-2.51-1.25-4.76-1.88-6.76-1.88
		c-3.26,0-6.26,1-9.02,3.01c-2.76,2.01-5.58,3.32-8.46,3.95c-2.88,0.63-5.01,1.82-6.39,3.57c-1.38,1.76-2.57,3.76-3.57,6.01
		c-0.5,1.26-1.13,2.38-1.88,3.38c-8.77,15.28-15.54,30.94-20.29,46.97L856.2,237.5c-5.01,3.26-9.46,8.08-13.34,14.47
		c-3.89,6.39-6.95,11.84-9.21,16.35l-1.88,3.76c-0.51,0.87-0.99,1.75-1.47,2.63c0.71-2.03,1.45-4.04,2.23-6.01
		c0-0.75-0.38-1.13-1.13-1.13c-0.5,0-0.88,0.13-1.13,0.38c-6.52,10.77-12.4,21.55-17.66,32.32c9.52-28.31,14.28-55.36,14.28-81.17
		c0-33.07-9.77-57.74-29.31-74.03c-18.04-14.78-43.72-22.17-77.03-22.17c-7.27,0-14.91,0.25-22.92,0.75
		c28.31,2.25,49.98,8.21,65.01,17.85c15.03,9.65,24.8,22.11,29.31,37.39l-1.5-1.13c-4.26-3.25-7.64-6.89-10.15-10.9
		c-7.52-12.02-18.54-20.04-33.07-24.05c-17.29-4.76-36.7-7.14-58.24-7.14c-7.52,0-14.91-0.5-22.17-1.5
		c-8.52-1.25-16.79-1.88-24.8-1.88c-24.3,0-46.85,5.64-67.64,16.91c-18.54,9.52-33.2,20.61-43.96,33.26
		c-10.77,12.65-20.17,27-28.18,43.03l-0.75,1.88c4.26-19.79,12.27-38.58,24.05-56.37v-0.38h-0.38c-3.76,4.51-7.64,8.9-11.65,13.15
		c-10.52,11.53-20.61,23.49-30.25,35.89c-9.65,12.4-17.47,25.24-23.49,38.52c-2.25,3.51-4.01,7.14-5.26,10.9
		c-0.25,1-0.63,1.88-1.13,2.63c-5.76,16.53-11.9,33.07-18.41,49.6l-0.38,0.75c-2,4.51-3.19,7.83-3.57,9.96
		c-0.38,2.13-0.56,4.07-0.56,5.82c0,4.51,1.63,12.91,4.89,25.18l0.38,2.25c0,1-0.62,3.38-1.88,7.14l-3.38,15.78l-5.64,24.8
		c-0.25,2.76-0.38,5.64-0.38,8.64c0,10.27,2.2,20.36,6.58,30.25c1.31,2.96,2.4,5.95,3.32,8.96c-3.3-0.09-6.6-0.13-9.9-0.13
		c-21.3,0-46.6,1.76-75.91,5.26l-5.64,0.38c4.76-1.5,9.27-4.13,13.53-7.89l9.39-1.5c18.79-2.5,28.18-4.13,28.18-4.88
		c0-0.5-0.38-0.75-1.13-0.75c-23.8-3.01-42.97-4.51-57.49-4.51h-24.05c-26.81,0-58,2.13-93.57,6.39
		c13.02-18.04,30.68-43.71,52.98-77.03l13.53-18.41c0.14,0,0.28-0.05,0.43-0.13c-5.84,10.82-10.12,21.76-12.83,32.82
		c0,1,0.38,1.82,1.13,2.44c0.75,0.63,2,0.94,3.76,0.94c0.75,0,1.37-0.38,1.88-1.13c6.51-9.77,16.09-23.8,28.75-42.09
		c12.65-18.28,25.55-36.51,38.7-54.67c13.15-18.16,23.86-31.88,32.13-41.15c7.26-8.01,15.09-15.78,23.49-23.3
		c8.39-7.52,16.16-15.03,23.3-22.55c7.14-7.52,12.71-15.53,16.72-24.05l0.38-1.88c0-0.75-0.25-1.5-0.75-2.25
		c11.02-13.77,21.92-27.81,32.69-42.09l19.16-24.8l0.38-0.75c0-0.25-0.19-0.43-0.56-0.56c-0.38-0.12-0.82-0.31-1.32-0.56
		c-0.5,0-1,0.25-1.5,0.75c-24.8,23.8-51.48,46.6-80.04,68.39c0.5-3.01,2.63-6.14,6.39-9.39c6.26-5.76,12.27-11.65,18.04-17.66
		c12.02-12.27,24.55-23.92,37.58-34.95l3.01-2.63c5.51-3.25,8.27-7.26,8.27-12.02v-1.13c-1.5-0.75-2.44-1.19-2.82-1.32
		c-0.38-0.12-0.69-0.19-0.94-0.19l-0.38,0.38c-9.27,8.02-17.04,12.02-23.3,12.02c-3.26,0-6.64-1.13-10.15-3.38
		c-1,0-1.88,0.19-2.63,0.56c-0.75,0.38-13.9,1.69-39.46,3.95c-23.3-7.01-42.65-10.65-58.06-10.9c-15.41-0.25-24.61-0.38-27.62-0.38
		c-26.06,0-55.99,1-89.81,3.01c-1.5,0.25-3.38,0.38-5.64,0.38l-4.51-0.38c-1.5,0-2.51,0.38-3.01,1.13
		c-2.76,3.76-5.64,6.39-8.64,7.89c-30.31,0.51-58.37,6.01-84.17,16.53c-0.5,0.25-0.75,0.75-0.75,1.5v0.38
		c0.5,1.26,23.42,2.13,68.77,2.63h0.75c-8.27,3.26-15.59,5.2-21.98,5.82c-6.39,0.63-12.46,2.07-18.22,4.32
		c-2.01,0.75-4.13,1.13-6.39,1.13s-4.64-0.38-7.14-1.13c-2.51-0.75-6.14-1.13-10.9-1.13c-3.76,0-8.02,1.5-12.78,4.51l0.75,0.38
		c-4.51,0-16.53,0.75-36.07,2.25c-0.75,0-1.25,0.13-1.5,0.38v0.75c0,1.76,15.53,3.89,46.6,6.39c0.5,2.25,21.67,6.89,63.51,13.9
		l0.75,3.76c0.75,5.26,4.88,8.14,12.4,8.64c8.01,2.01,18.54,3.01,31.57,3.01c14.28,0,30.94-1.25,49.98-3.76
		c10.02-1.25,21.29-2.38,33.82-3.38c-7.27,6.01-12.53,12.02-15.78,18.04c-2.25,4.01-5.01,8.02-8.27,12.02l-13.53,14.66
		c-4.51,5.51-10.77,12.15-18.79,19.92c-9.27,9.52-22.42,24.93-39.46,46.22c-23.05,28.31-43.72,52.74-62,73.28
		c-11.53,13.03-19.86,21.74-24.99,26.12c-5.14,4.39-10.21,9.15-15.22,14.28c-5.01,5.14-10.33,10.02-15.97,14.65
		c-5.64,4.64-11.96,7.96-18.98,9.96c-0.5,0.25-1.63,1.63-3.38,4.13c-0.5,1-0.75,1.75-0.75,2.25c0.5,1.5,0.75,3.01,0.75,4.51
		c0,3.76-2.5,8.14-7.52,13.15c-2.75,2.51-4.88,5.26-6.39,8.27l1.88,0.38c2.25,0,5.14-1.5,8.64-4.51c3.51-3.01,6.64-4.51,9.39-4.51
		h1.13l0.38,2.63c0,3.26-2.25,6.64-6.76,10.15L32.5,510.69c-7.26,5.51-10.9,11.15-10.9,16.91c0,1.5,0.38,3.26,1.13,5.26
		c0.75,2.01,2.01,3.01,3.76,3.01c1.76-0.25,3.63-1,5.64-2.25c3.51-1.75,5.64-2.63,6.39-2.63l1.5,0.38
		c-3.01,7.02-4.51,12.53-4.51,16.53c0.75,4.01,6.89,6.01,18.41,6.01c4.51,0,9.15-0.5,13.9-1.5l40.58-6.39
		c21.54-3.01,42.96-6.39,64.26-10.15c12.78-2,25.55-3.38,38.33-4.13c-31.32,7.77-61.5,17.16-90.56,28.18l-0.38,0.75l0.38,0.75h0.75
		c57.62-14.53,112.23-25.93,163.84-34.2c29.06-3.76,51.73-9.14,68.01-16.16c23.04-3.01,44.59-7.52,64.63-13.53l0.38-0.75h-0.75
		c-10.28-1.25-21.17-2.25-32.69-3.01c-1-3.01-1.5-4.88-1.5-5.64c18.21-4.68,36.18-9.48,53.95-14.38c0.34,2.89,0.53,5.8,0.53,8.74
		l-0.38,7.52c0,2.25,3.38,4.76,10.15,7.51l1.13,0.75c12.52,5.77,26.43,9.77,41.71,12.02l4.13,0.75l7.51,1.13
		c4,0.5,7.89,1.26,11.65,2.25c3.76,1,7.01,2.88,9.77,5.64c-4.51,2.25-10.02,3.38-16.53,3.38c-3.01,0-6.39-0.31-10.15-0.94
		c-3.76-0.62-7.77-0.94-12.02-0.94l-6.76,0.38c7.76,5.51,15.78,8.27,24.05,8.27L518,530.6c44.84,0,87.43-7.52,127.76-22.55
		c9.27-4,17.66-8.77,25.18-14.28c15.28-11.02,28.93-22.79,40.96-35.32l3.76,0.38c10.52,0,27.93-20.04,52.23-60.12l2.63,0.38
		l3.01-0.38c17.29-9.52,28.99-22.04,35.13-37.58c2.88-7.3,5.32-14.7,7.35-22.2c0.46,5.27,1.33,10.54,2.61,15.81
		c-5.76,19.04-10.02,35.32-12.78,48.85c-2.5,7.52-4.76,14.91-6.76,22.17c-4.26,13.28-6.39,24.8-6.39,34.57
		c0,9.77,2.38,19.42,7.14,28.93l1.13,0.38l0.75-0.38c5.26-9.02,9.27-18.04,12.03-27.06c2.51,1.26,4.01,3.26,4.51,6.01
		c0.5,2.76,0.75,5.14,0.75,7.14c0,6.52-1.13,12.28-3.38,17.29c-0.25,1-0.75,2.13-1.5,3.38c-1.5,2.25-2.25,4.26-2.25,6.01
		c0,1.5,1.26,3.01,3.76,4.51l-1.5,6.39c-5.51,19.79-8.27,39.33-8.27,58.62c0,2.25,0.06,4.57,0.19,6.95
		c0.13,2.38,2.07,3.57,5.83,3.57c3.76,0,5.64-1.25,5.64-3.76c0.25-6.01,2.2-11.4,5.83-16.16c3.63-4.76,7.83-9.26,12.59-13.53
		c13.28-12.02,21.67-25.93,25.18-41.71l7.14-20.67c0.75,1,1.25,1.88,1.5,2.63c0.75,1.76,1.75,3.19,3.01,4.32
		c1.25,1.13,3.5,1.69,6.76,1.69c2.5-3.76,7.57-15.65,15.22-35.7c7.64-20.04,15.97-42.77,24.99-68.2
		c9.02-25.42,16.78-48.35,23.3-68.77c6.51-20.42,10.02-33,10.52-37.77c-6.01,6.52-10.02,13.28-12.02,20.29
		c-1.26,3.76-2.88,7.52-4.88,11.27c-1.26,5.01-4.01,8.14-8.27,9.39c-2.51,0.75-3.76,1.76-3.76,3.01c0,1.26,0.19,2.2,0.56,2.82
		c0.38,0.63,0.69,1.07,0.94,1.32c0,7.02-1.5,13.47-4.51,19.35c-3.01,5.89-6.76,11.71-11.27,17.47l-0.75,1.13
		c0.75-13.02,4.51-25.8,11.27-38.33c1.5-3.01,3.01-6.76,4.51-11.27c3.01-10.27,6.76-20.79,11.27-31.56
		c3.5-8.77,8.51-17.16,15.03-25.18c2,0.75,3.01,2.01,3.01,3.76v2.25c0,1.5,0.38,2.57,1.13,3.19c0.75,0.63,2.13,1.07,4.13,1.31
		l0.38-1.13c1-2.5,1.75-5.01,2.25-7.52l5.64,33.82c3.25,21.79,7.52,43.72,12.78,65.76v2.25c0,18.04,2.82,36.39,8.46,55.05
		c5.64,18.67,11.96,36.51,18.98,53.55c-1.26,1.5-2.07,2.88-2.44,4.13c-0.38,1.26-0.63,2.44-0.75,3.57
		c-0.13,1.13-0.44,2.44-0.94,3.95c-0.5,1.5-1.26,3.07-2.25,4.7c-1,1.63-1.5,2.95-1.5,3.95c0,2.76,2.5,5.01,7.52,6.76h1.5
		c3.01-4.26,5.26-7.64,6.76-10.15h1.88c2.5,0,3.76-0.75,3.76-2.25c0-3.01,0.12-4.76,0.38-5.26c1.75-1.25,6.51-3.88,14.28-7.89
		c-0.75,2.76-2.25,5.26-4.51,7.52c-1.5,1.5-2.25,2.76-2.25,3.76l0.38,3.38l0.38,1.88h0.38c0-0.25,0.38-0.5,1.13-0.75
		c2.75-1,4.19-1.75,4.32-2.25c0.12-0.5,0.31-1,0.56-1.5c0-1.75,1.19-3.38,3.57-4.89c2.38-1.5,4.45-3.25,6.2-5.26
		c4.51-5.51,9.39-8.27,14.66-8.27c2.5,0,5.38,0.5,8.64,1.5h1.13c2.5,0,5.13-2.12,7.89-6.39l17.29-19.54
		c1.75-1.75,6.01-7.01,12.78-15.78c10.02-13.02,20.29-25.42,30.81-37.2c7.01-7.52,15.91-17.78,26.68-30.81
		c6.76-8.27,14.03-16.28,21.79-24.05l10.52-10.9c0.5,3.51,0.75,6.89,0.75,10.15c0,12.78-3.38,24.68-10.15,35.7
		c-12.28,23.3-20.29,42.97-24.05,59c-3.26,14.03-9.52,31.19-18.79,51.48l-0.38,0.75c-2.76,5.26-4.13,9.77-4.13,13.53
		c0,2.76,0.88,5.51,2.63,8.27c12.02,17.04,18.04,31.94,18.04,44.72c0,6.52-0.88,11.53-2.63,15.03l-0.75,4.13
		c0,2.15,1.35,4.04,4.04,5.68c-2.56,0.09-4.8,0.38-6.67,0.9c-2.25,0.63-3.5,2.2-3.76,4.7c0,2.51,1.07,4.32,3.19,5.45
		c2.13,1.13,4.83,1.82,8.08,2.07c4.26,0.25,10.15,0.38,17.66,0.38c10.28,0,20.04,1.5,29.31,4.51c13.53,5.01,27.31,7.52,41.33,7.52
		c9.27,0,20.17-1.25,32.69-3.76c6.01-1.5,11.78-2.25,17.29-2.25c5.26,0,10.77,1,16.53,3.01c-6.76,2.76-11.84,6.01-15.22,9.77
		s-6.45,8.02-9.21,12.78l46.22-9.77l19.54-4.51c30.81-6.01,60.75-13.34,89.81-21.98c29.06-8.64,55.36-21.1,78.91-37.39
		c3.76-2.75,7.89-5.13,12.4-7.14c4.51-2,7.01-3.25,7.52-3.76c3.01-1.75,5.13-2.63,6.39-2.63c1.5,0,2.75,0.63,3.76,1.88
		c2.5,3.26,4.38,5.01,5.64,5.26c1.25,0.25,2,0.38,2.25,0.38c2.5,0,5.64-1.88,9.39-5.64c0.25-0.5,0.62-0.88,1.13-1.13
		c14.78-13.77,23.92-28.93,27.43-45.47c1.5-9.02,5.38-17.03,11.65-24.05c10.52-13.28,15.78-26.93,15.78-40.96
		C1632.54,400.21,1617.63,379.3,1587.82,362.26z M185.82,435.91l-3.38,2.63c-3.01,2.01-5.89,4.51-8.64,7.52
		c-7.77,8.52-15.78,13.78-24.05,15.78c3.76-4.51,6.63-7.7,8.64-9.58c2-1.88,4-3.57,6.01-5.07c2-1.5,5.38-4.51,10.15-9.02l6.01-5.64
		c1.75,0,3.32-0.38,4.7-1.13c1.37-0.75,2.5-1.31,3.38-1.69c0.88-0.38,1.69-0.81,2.44-1.32C188.32,431.9,186.57,434.41,185.82,435.91
		z M454.87,460.33l2.25,1.13c0.62,0.27,1.25,0.56,1.87,0.84c-1.13-0.1-2.26-0.2-3.39-0.3C455.36,461.45,455.11,460.91,454.87,460.33
		z M465.96,477.62c-2.77-2.68-5.26-5.97-7.47-9.85c1.67-0.47,3.36-0.94,5.03-1.42c0.9-0.22,1.38-0.56,1.47-0.99
		c3.14,1.74,6.29,3.69,9.43,5.88c5.76,4.01,9.77,9.27,12.02,15.78C477.17,485.01,470.34,481.88,465.96,477.62z M711.52,382.92
		c-4.26,2.76-6.52,4.64-6.76,5.64c-0.25,1-0.38,1.76-0.38,2.25c0,1.5-0.75,2.88-2.25,4.13c-7.52,6.52-14.28,13.4-20.29,20.67
		c-2.51,3.26-5.14,6.26-7.89,9.02c8.77-10.02,16.91-20.91,24.43-32.69l4.51,0.38c0.75,0,1.13-0.5,1.13-1.5c0-1,0.12-2.57,0.38-4.7
		c0.25-2.13,0.94-4.26,2.07-6.39c1.13-2.13,2.44-4.13,3.95-6.01c1.5-1.88,3.5-3.57,6.01-5.07c2,2.01,3.01,3.89,3.01,5.64
		C719.41,376.54,716.78,379.42,711.52,382.92z M730.69,288.23c-2.01,13.53-5.77,26.93-11.27,40.21h-0.38
		c-12.02,10.27-24.68,26.68-37.95,49.23c-9.77,16.53-20.67,32.32-32.69,47.35c-19.04,23.8-38.96,35.7-59.75,35.7
		c-10.28,0-21.55-3.01-33.82-9.02l0.75,0.75c15.53,11.03,29.31,16.53,41.33,16.53l7.52-0.38c13.53-2.25,25.18-6.63,34.95-13.15
		c-2.25,6.52-7.02,10.9-14.28,13.15c-7.27,2.25-15.16,3.76-23.67,4.51c-4.01,0.5-7.58,1-10.71,1.5c-3.13,0.5-5.95,0.75-8.45,0.75
		c-17.79,0-31.19-13.02-40.21-39.08c-5.26-15.53-7.89-31.31-7.89-47.35c0-4.51,0.25-9.14,0.75-13.9v-0.38h-0.75
		c-1.5,5.26-3.13,10.28-4.88,15.03c-4.01,9.77-6.76,19.67-8.27,29.69c-1.76-3.01-2.63-7.01-2.63-12.02
		c0.5-32.06,5.13-63.75,13.9-95.07c0,14.28,1.63,26.56,4.89,36.83c0.25,0.5,0.62,0.75,1.13,0.75c0.5,0,0.88,0,1.13,0
		c1,0,1.5-0.38,1.5-1.13c1.25-25.3,8.89-49.85,22.92-73.65v0.38l-0.38,0.75l1.13,0.38c-0.25-0.25-0.38-0.43-0.38-0.56
		c0-0.12-0.13-0.19-0.38-0.19c8.77-7.26,15.91-15.34,21.42-24.24c5.51-8.89,13.28-17.22,23.3-24.99c1.75-1,2.63-2.25,2.63-3.76
		c0-0.75-0.5-3.13-1.5-7.14c12.03-11.27,26.43-19.29,43.21-24.05c4.51-1,8.89-1.5,13.15-1.5c12.27,0,28.43,6.01,48.47,18.04
		l4.13,6.39l0.38,0.75c4.51,7.02,7.89,14.03,10.15,21.04v1.13c-1,2.76-1.88,4.57-2.63,5.45c-0.75,0.88-1.26,1.57-1.5,2.07v2.63
		c4.26,10.52,6.39,20.8,6.39,30.81C731.44,281.72,731.19,284.98,730.69,288.23z M776.16,246.52c-0.5-5.01-1.5-11.4-3.01-19.16
		c3.01,4.76,4.51,8.9,4.51,12.4C777.66,241.76,777.15,244.02,776.16,246.52z M957.65,254.03c-0.5-0.5-0.75-1.13-0.75-1.88l0.38-0.38
		c0.25-0.5,0.88-1,1.88-1.5l0.75,2.25l1.13,6.39C960.28,257.42,959.16,255.79,957.65,254.03z M1070.01,355.87v-0.75
		c0-8.01,3.88-17.1,11.65-27.24c7.76-10.15,16.72-19.73,26.87-28.75c10.15-9.02,18.47-15.53,24.99-19.54
		C1120.23,309.65,1099.07,335.08,1070.01,355.87z M1547.62,270.19c-12.28,20.29-25.68,35.08-40.21,44.34
		c-10.02,5.77-20.73,9.9-32.13,12.4c-11.4,2.51-21.36,3.76-29.87,3.76c-3.76,0-7.52-0.25-11.27-0.75
		c7.26-19.04,16.03-37.82,26.3-56.37l8.27-15.78c4-6.26,8.14-12.59,12.4-18.98c4.26-6.39,6.95-11.02,8.08-13.9
		c1.13-2.88,1.69-5.32,1.69-7.33c0-3.76-2.76-10.77-8.27-21.04v-2.63c0-1-0.13-1.94-0.38-2.82c-0.25-0.88-1.13-1.56-2.63-2.07
		c-4.01,1-6.95,2.51-8.83,4.51c-1.88,2.01-3.45,4.07-4.7,6.2c-1.26,2.13-2.76,4.13-4.51,6.01c-1.76,1.88-4.39,3.32-7.89,4.32
		c-2.51-1.25-3.76-2.38-3.76-3.38c0-2.5,0.12-4.38,0.38-5.64c0.25-1.25,0.38-3.01,0.38-5.26c-0.25-1.75-1.76-3.38-4.51-4.88
		c-6.76,3.26-14.78,6.45-24.05,9.58c-9.27,3.14-18.1,6.71-26.49,10.71c-8.4,4.01-14.22,9.02-17.47,15.03c-1,2.25-2.95,3.82-5.82,4.7
		c-2.88,0.88-5.45,1.32-7.7,1.32c-2.51,0-5.14-0.25-7.89-0.75l3.76-5.64c2.75-3.51,5.01-6.89,6.76-10.15
		c1.75-3.25,2.63-7.39,2.63-12.4c-8.02,5.77-14.16,13.66-18.41,23.67c-4.26,10.02-8.52,20.29-12.78,30.81h1.5l-2.25,4.51
		c-2.25,5.01-4.64,9.9-7.14,14.66c-14.03,30.06-26.8,60.38-38.33,90.94l-13.15,33.07c0,0.5,0.32,0.94,0.94,1.32
		c0.63,0.38,1.31,0.56,2.07,0.56c1,0,1.63-0.38,1.88-1.13c17.79-31.06,34.82-62.38,51.1-93.94c4.26-8.27,8.89-16.53,13.9-24.8
		c-14.79,30.81-29.31,61.88-43.59,93.19c-6.01,14.78-12.9,29.31-20.67,43.59c-4,7.77-7.51,15.54-10.52,23.3
		c-3.76,10.77-9.02,21.17-15.78,31.19c16.29,1.76,25.12,3.45,26.49,5.07c1.38,1.63,2.07,2.95,2.07,3.95c0,3.01-2.25,7.77-6.76,14.28
		l-1.5,1.88c-1.5,2.25-2.25,4.13-2.25,5.64c0,1.26,0.5,2.51,1.5,3.76l4.13,0.38c3.51,0,7.33-1.56,11.46-4.7
		c4.13-3.13,7.7-4.7,10.71-4.7l3.01,0.38c1.5,1.5,2.38,3.01,2.63,4.51c0,1.76-0.19,3.45-0.56,5.07c-0.38,1.63-0.56,3.95-0.56,6.95
		c0.5,2.01,2.38,3.89,5.64,5.64l18.41-55.99c2.75,0.75,4.51,2.51,5.26,5.26c1.5,2.76,3.38,4.13,5.64,4.13
		c3.25,0,5.26-1.25,6.01-3.76c0.75-2.5,2.63-6.76,5.64-12.78c7.26-15.28,15.03-30.44,23.3-45.47c8.77-17.29,17.53-27.68,26.3-31.19
		c8.77-3.51,20.79-5.26,36.07-5.26c6.51,0,13.9,0.25,22.17,0.75c18.28,0.75,30.18,5.89,35.7,15.41
		c8.01,14.78,12.02,26.06,12.02,33.82v11.65c0,15.03-6.76,28.56-20.29,40.58c-50.61,43.59-110.85,65.38-180.75,65.38h-8.27
		c-6.26,0-10.33,1.82-12.21,5.45c-1.88,3.63-6.82,6.08-14.84,7.33h-1.5c-13.28,2.25-26.17,5.26-38.7,9.02
		c-23.3,7.02-43.08,10.52-59.37,10.52l-6.81-0.25c3.96-6.49,6.99-13.29,9.06-20.42c2.75-11.27,8.89-21.54,18.41-30.81
		c2.5,1.5,3.76,2.88,3.76,4.13c0,1.5-0.38,3.01-1.13,4.51c-0.75,1.5-1.13,3.01-1.13,4.51c0,1.26,1.25,2.51,3.76,3.76l4.13-4.51
		c3.01-3.25,5.26-6.63,6.76-10.15c8.77-21.04,16.91-39.46,24.42-55.24c9.77-19.79,18.79-41.58,27.06-65.38
		c4.51-0.5,7.76-2.5,9.77-6.01c8.51-17.78,14.66-36.07,18.41-54.86c3.5-17.03,7.26-41.96,11.27-74.78
		c3.76-10.02,8.39-19.79,13.9-29.31c6.51-11.27,9.77-20.91,9.77-28.93c0-6.01-2.13-12.15-6.39-18.41
		c2.75-7.01,5.88-14.03,9.39-21.04l-0.38-0.38c-0.25,0-0.38,0.13-0.38,0.38c-1.26,1.26-2.63,3.01-4.13,5.26v-0.75
		c1.1-3.68,2.06-7.38,2.91-11.08c6.2-1.29,12.38-2.6,18.51-3.95l30.06-6.01c7.26-0.25,14.03-1.13,20.29-2.63
		c2.75-0.5,5.26-0.75,7.52-0.75c4.51,0,9.14,1.5,13.9,4.51c5.01,2.51,8.89,3.76,11.65,3.76c2.5,0,5.26-0.75,8.27-2.25
		c11.77-5.26,24.92-8.39,39.46-9.39l8.64-1.13c6.01-0.75,12.02-1.13,18.04-1.13c4.76,0,9.64,0.25,14.66,0.75
		c20.04,2.51,38.33,7.52,54.86,15.03l1.13,0.75c4.76,2.01,7.39,3.7,7.89,5.07c0.5,1.38,0.75,2.44,0.75,3.19
		c0,1.76-0.63,3.63-1.88,5.64c-16.04-10.52-34.95-16.53-56.74-18.04c-6.52-1.25-14.41-1.88-23.67-1.88v0.38
		c2.25,0,3.63,0.13,4.13,0.38c14.53,3.01,26.17,8.14,34.95,15.41c8.77,7.27,16.4,15.91,22.92,25.93c2.75,4.26,4.88,8.9,6.39,13.9
		C1567.16,231.49,1559.89,249.9,1547.62,270.19z M1611.5,420.5c-6.52-7.76-10.4-15.78-11.65-24.05c-1-5.26-2.63-10.39-4.89-15.41
		c10.27,8.02,16.22,13.97,17.85,17.85c1.63,3.89,2.44,6.95,2.44,9.21C1615.25,412.11,1614,416.24,1611.5,420.5z"/>
	<path d="M1793.75,382.92l3.76-9.39c8.51-24.3,15.03-48.6,19.54-72.9c2.25-11.02,4.76-22.04,7.52-33.07
		c12.02-17.29,19.04-33.19,21.04-47.72c1.25-9.27,1.88-16.16,1.88-20.67c0-8.01-1-15.65-3.01-22.92c-0.5-1.25-1.63-2.13-3.38-2.63
		c5.01-5.51,8.89-11.65,11.65-18.41c1.5-5.76,2.25-11.52,2.25-17.29c0-5.76-0.69-11.58-2.07-17.47c-1.38-5.88-2.07-11.84-2.07-17.85
		c0-4.76,0.38-9.39,1.13-13.9c0-1-0.88-1.5-2.63-1.5c-0.75,0-1.26,0.25-1.5,0.75c-8.27,16.53-14.41,33.2-18.41,49.98
		c-4.26,11.53-12.02,21.79-23.3,30.81l-11.27,10.9c1.75-13.02,4.26-25.68,7.51-37.95c0-0.5-0.19-0.94-0.56-1.32
		c-0.38-0.38-0.69-0.56-0.94-0.56c-0.25,0-0.69,0.06-1.31,0.19c-0.63,0.13-1.07,0.44-1.32,0.94
		c-11.03,16.29-20.92,33.07-29.69,50.35h-0.38c-5.26,7.27-19.29,40.08-42.09,98.45c-9.52,24.3-17.73,46.1-24.61,65.38
		c-6.89,19.29-10.46,31.19-10.71,35.7c6.01-6.26,10.15-12.65,12.4-19.16c1-2.75,2.25-5.38,3.76-7.89l1.13-3.01
		c0.75-2,1.75-3.82,3.01-5.45c1.25-1.63,3.44-2.75,6.58-3.38c3.13-0.62,4.7-1.19,4.7-1.69c0-0.25-0.32-0.69-0.94-1.32
		c-0.63-0.62-1.26-1.94-1.88-3.95c-0.63-2-0.94-4-0.94-6.01c0-3.25,0.88-6.51,2.63-9.77c3.01-4.76,6.63-9.52,10.9-14.28l4.88-6.01
		c-0.5,7.02-3.57,17.66-9.21,31.94c-5.64,14.28-11.9,28.18-18.79,41.71c-6.89,13.53-12.46,22.68-16.72,27.43
		c-2.01-0.75-3.01-1.75-3.01-3.01v-3.76c0-2-1.88-3.01-5.64-3.01l-0.38,1.13c-1.5,3.01-2.25,5.26-2.25,6.76v2.63
		c0,2.76,1.63,5.64,4.89,8.64c0.75,0.75,1.13,1.38,1.13,1.88c0,1.26-2.38,2.38-7.14,3.38c-3.25,0.75-6.26,1.82-9.02,3.19
		c-2.75,1.38-4.13,3.45-4.13,6.2c0,4.01-2,8.9-6.01,14.66c-4,5.77-6.01,10.77-6.01,15.03c0,3.76,2.38,7.64,7.14,11.65
		c0.5,0.5,0.75,1.26,0.75,2.25c0,1.76-1.88,5.14-5.64,10.15l-3.01,6.01l-0.38,2.25c0,1.5,0.63,3.01,1.88,4.51
		c8.77-1.5,15.16-2.25,19.16-2.25c3.76,0.25,6.26,1.63,7.52,4.13l-4.13,24.05c-2,18.04-6.51,35.83-13.53,53.36
		c0,0.75,0.51,1.13,1.5,1.13h1.13c0.75,0,1.38-0.25,1.88-0.75c7.27-13.28,15.41-26.43,24.42-39.46
		c10.27-14.53,19.29-29.31,27.06-44.34c2.75-5.26,5.76-10.64,9.02-16.16c0,2.25-0.06,3.57-0.19,3.95c-0.13,0.38-0.32,0.69-0.56,0.94
		l-2.25,4.89v0.75c0.25,0.25,0.88,0.38,1.88,0.38c-0.5,6.01-1.38,11.9-2.63,17.66c0,0.75,0.5,1.13,1.5,1.13
		c1.5,0,2.38-0.25,2.63-0.75c6.26-12.02,13.72-24.67,22.36-37.95c8.64-13.28,16.72-26.93,24.24-40.96
		c7.52-14.03,12.65-27.93,15.41-41.71L1793.75,382.92z"/>
	<path d="M2216.86,149.19l-10.9,0.75c-4.26,0-7.02-0.75-8.27-2.25c-1.26-1.5-1.88-2.75-1.88-3.76c0-1.25,0.62-2.38,1.88-3.38
		c29.81,0,55.49-1,77.03-3.01c0.25,0,0.38-0.12,0.38-0.38v-0.38l-9.39-0.38c-3.51,0-6.89-0.06-10.15-0.19
		c-3.26-0.12-5.89-0.31-7.89-0.56l-3.38-0.38l0.75-0.38v-0.38l-0.75-0.38c-2.51,0.25-5.14,0.38-7.89,0.38
		c-15.78-1.75-31.82-4-48.1-6.76c-11.78-2-23.67-3.88-35.7-5.64l23.3-0.38l23.3,0.38c-1.5-3.25-3.57-5.32-6.2-6.2
		c-2.63-0.87-5.45-1.31-8.45-1.31c-15.28,0-26.68-0.12-34.2-0.38c-6.27-0.25-12.65-0.38-19.17-0.38c-12.02,0-24.42,0.38-37.2,1.13
		c-9.02,0.5-15.41,1.13-19.16,1.88c-2.51,0.75-13.53,2.25-33.07,4.51l-5.26,0.38c-4.76,0-9.39-1.13-13.9-3.38
		c-8.27-5.01-16.41-7.52-24.42-7.52c-8.52,0-16.91,2.88-25.18,8.64c-1.76,1.26-3.14,2.63-4.13,4.13c-1,1.5-2.32,2.88-3.95,4.13
		c-1.63,1.26-4.13,1.94-7.52,2.07c-3.38,0.13-6.26,0.75-8.64,1.88c-2.38,1.13-4.57,2.44-6.58,3.95c-4.51,3.76-9.52,5.64-15.03,5.64
		c-2.25,0-4.88-0.25-7.89-0.75c-2.51,7.52-6.01,16.91-10.52,28.18c-2.51,7.52-4.89,13.53-7.14,18.04
		c-6.01,13.28-9.65,26.68-10.9,40.21c-1,9.02-2.76,17.91-5.26,26.68c-2.51,8.77-7.02,17.29-13.53,25.55
		c-8.02,10.77-12.65,21.92-13.9,33.44c-2.01,4.01-4.01,8.52-6.01,13.53c-14.53,16.79-25.05,34.19-31.56,52.23
		c-0.25,1.26-0.75,2.51-1.5,3.76c-1.5,2.25-2.25,3.89-2.25,4.89c0,3.01,2.38,4.64,7.14,4.88c-3.76,9.77-7.01,19.42-9.77,28.93
		l-0.38,1.13c0,0.75,0.44,1.57,1.31,2.44c0.88,0.88,2.07,1.31,3.57,1.31c-6.26,11.03-10.52,22.3-12.78,33.82c0,1,0.88,1.5,2.63,1.5
		c0.75,0,1.26-0.25,1.5-0.75c5.26-8.27,10.65-16.4,16.16-24.42c0,0.25,0.19,0.5,0.56,0.75c0.38,0.25,0.56,0.63,0.56,1.13l-0.38,1.5
		c-2.75,2.76-4.38,4.51-4.88,5.26l-4.13,6.01c-2.5,4.76-6.01,9.02-10.52,12.78c-5.76,4.01-8.83,7.02-9.21,9.02
		c-0.38,2.01-0.56,3.14-0.56,3.38c0,3.26,3.26,6.76,9.77,10.52c3.26,1.75,4.89,4.01,4.89,6.76c-1,2.51-5.26,4.13-12.78,4.88
		c-4.51,0.25-7.89,1-10.15,2.25c-6.51,1.76-9.77,3.76-9.77,6.01l0.38,1.5c1,2.01,2.76,3.38,5.26,4.13c2.51,0.75,5.33,1.26,8.45,1.5
		c3.14,0.25,6.33,0.5,9.58,0.75c5.01,0,9.52,0.38,13.53,1.13c-4.26,0.75-8.89,1.88-13.9,3.38h-0.38c0,0.25,0.06,0.44,0.19,0.56
		c0.13,0.13,0.32,0.19,0.56,0.19c11.03-1,18.04-1.5,21.04-1.5c8.02,3.51,16.16,5.26,24.42,5.26h6.39c6.26,0,12.52-0.25,18.79-0.75
		l20.29-1.88c0.25,0.5,1,0.75,2.25,0.75c10.77,1.26,21.04,1.88,30.81,1.88c8.27-0.25,16.91-1,25.93-2.25l21.42-1.88
		c35.82-2.5,70.39-8.64,103.71-18.41c0.5,0,0.75-0.38,0.75-1.13h-1.13c-19.79,3.01-39.71,5.14-59.75,6.39
		c11.52-4,23.67-6.26,36.45-6.76c4.51-0.25,8.89-0.75,13.15-1.5c1.5-0.25,3.13-0.38,4.88-0.38l4.88,0.38c6.51,0,10.27-0.5,11.27-1.5
		c3.76-4,8.51-6.7,14.28-8.08c5.76-1.37,11.84-2.38,18.22-3.01c6.39-0.62,12.34-1.69,17.85-3.19c3.5-0.75,7.14-1.37,10.9-1.88
		c12.78-1.25,22.42-5.26,28.93-12.02c-11.78,1-23.3,2.25-34.57,3.76c-16.53,2.76-33.07,4.13-49.6,4.13c-10.02,0-20.04-0.5-30.06-1.5
		c0.75-3.76,2.94-6.2,6.58-7.33c3.63-1.13,10.08-2.31,19.35-3.57c21.04-0.25,31.81-0.62,32.32-1.13l-0.75-1.13l-21.04-4.13
		c-0.75-0.75-1.38-1.13-1.88-1.13c-3.26,0-6.39-0.25-9.39-0.75c-1.5,0-2.38-0.12-2.63-0.38c-5.26-0.75-10.4-1.63-15.41-2.63
		c-10.77-2.75-19.92-4.13-27.43-4.13c-6.26,0-12.65,1.5-19.16,4.51c-14.53,0.25-28.93,0.88-43.21,1.88
		c-10.52,0.5-17.79,0.75-21.79,0.75c-6.01,0-15.28,0.63-27.81,1.88l13.9-30.44c12.52-27.06,23.3-54.61,32.32-82.67l0.38-0.38
		c0-0.25-0.13-0.38-0.38-0.38c-0.25,0-0.5-0.12-0.75-0.38l-0.75,0.38c-4.26,6.76-16.41,24.8-36.45,54.11
		c8.77-18.04,16.4-36.2,22.92-54.49c1-4.26,3.06-8.2,6.2-11.84c3.13-3.63,9.21-5.82,18.22-6.58c20.29-1.5,35.7-3.38,46.22-5.64
		c8.77,1,14.78,1.88,18.04,2.63c5.51,1,11.27,1.5,17.29,1.5c18.79,0,37.32-2.5,55.61-7.52c9.77-2.5,19.66-4.51,29.69-6.01
		c8.51,0,14.78-1.13,18.79-3.38c11.77-6.51,24.8-9.77,39.08-9.77c4.76,0,9.77,0.38,15.03,1.13c-12.78-3.76-25.93-5.64-39.46-5.64
		c-4.01,0-8.02,0.13-12.02,0.38c-4.01,0.25-7.89,0.38-11.65,0.38c-14.28,0-27.94-1.88-40.96-5.64c5.26-2.75,11.9-4.13,19.92-4.13
		c10.02,0,18.04-2,24.05-6.01l-19.92-0.38c-20.8-0.5-37.2-1.63-49.23-3.38c-6.27-1-9.9-1.75-10.9-2.25c-1-0.5-1.82-1-2.44-1.5
		c-0.63-0.5-1.32-0.87-2.07-1.13l-11.65-0.75h-12.4c-11.78,0-18.79-0.69-21.04-2.07c-2.25-1.37-3.38-3.44-3.38-6.2
		c0-2.75,4-16.16,12.03-40.21l6.39-18.79c1.25-4.76,4-8.46,8.27-11.09c4.26-2.63,10.9-4.19,19.92-4.7l10.15-0.38
		c0.25,0.25,1,0.38,2.25,0.38c1,0.5,4,0.75,9.02,0.75c21.79-0.25,37.89-0.81,48.29-1.69c10.39-0.87,21.85-2.31,34.38-4.32
		l35.32-4.88c5.26,0,10.15-0.62,14.66-1.88c2.75-0.75,4.13-2.13,4.13-4.13v-1.13c0-3.51,1.44-5.76,4.32-6.76
		c2.88-1,7.45-1.5,13.72-1.5l2.63-0.38c7.26-0.25,14.59-1.06,21.98-2.44c7.39-1.37,14.97-4.7,22.73-9.96l-25.18,1.13L2216.86,149.19
		z M1893.51,285.6c-0.38,0.5-0.69,0.88-0.94,1.13l-8.27,16.91c-5.51,12.78-12.78,25.55-21.79,38.33l2.63-8.27
		c5.76-16.03,12.02-32.06,18.79-48.1c1-0.25,2-0.56,3.01-0.94c1-0.38,2.38-0.56,4.13-0.56c1.69,0,2.57-0.36,2.62-1.06
		c0.01,0.05,0.01,0.09,0.01,0.12c0,0.13,0.12,0.32,0.38,0.56C1894.08,284.47,1893.89,285.1,1893.51,285.6z M1897.08,269.44
		c-2.01,3.51-3.26,7.02-3.76,10.52c0,0.75,0.06,1.44,0.19,2.07c0.08,0.41,0.13,0.7,0.16,0.89l-1.48-2.58c-1.5-2-2.25-4.51-2.25-7.52
		l7.14-14.28l4.13-3.76C1901.22,260.05,1899.84,264.93,1897.08,269.44z M2008.31,266.81l-0.38-0.38l14.66-28.56
		C2019.58,247.65,2014.82,257.29,2008.31,266.81z M2031.98,201.43l-8.64,13.9c-5.01,8.52-10.15,16.91-15.41,25.18
		c2.5-9.77,6.14-19.22,10.9-28.37c4.76-9.14,9.89-15.97,15.41-20.48L2031.98,201.43z"/>
	<path d="M2593.76,110.87h-0.38l0.75,0.75C2594.14,111.37,2594.01,111.12,2593.76,110.87z"/>
	<path d="M2942.1,229.99l-0.38-0.75h-1.13c-0.51,0.25-0.75,0.5-0.75,0.75c-6.76,38.58-17.16,77.03-31.19,115.36
		c13.77-57.36,22.42-114.86,25.93-172.48l0.38-6.39c0-2.5-0.25-4.51-0.75-6.01c-0.75-2.5-2.88-4.51-6.39-6.01
		c-3.51-1.5-9.27-3.25-17.29-5.26l-4.88-1.13c-5.26-1-9.46-2.31-12.59-3.95c-3.14-1.63-4.7-4.07-4.7-7.33l0.38-2.63
		c0-4.26-7.02-6.39-21.04-6.39c-11.03,0-20.8,2.51-29.31,7.52c-4.76,3.51-9.27,7.14-13.53,10.9c4-14.78,6.01-29.56,6.01-44.34
		c0-0.25-0.13-0.38-0.38-0.38c-0.5,0-0.88,0.13-1.13,0.38c-1,5.51-3.63,10.59-7.89,15.22c-4.26,4.64-8.9,9.08-13.9,13.34
		c-11.27,9.52-20.17,20.17-26.68,31.94c-4.26,6.76-8.14,12.65-11.65,17.66c-4.76,6.52-9.15,13.15-13.15,19.92
		c-6.52,9.27-13.15,18.41-19.92,27.43c-18.54,24.55-36.33,49.36-53.36,74.4c-2.01,3.01-4.39,5.51-7.14,7.52
		c-1,0-1.75,0.13-2.25,0.38c-9.52,1-19.04,2.25-28.56,3.76c-11.78,2.01-23.8,3.51-36.07,4.51c-0.75,0.25-1.13,0.5-1.13,0.75
		c0,0.5,6.76,1.26,20.29,2.25c2.25,0.25,4.63,0.38,7.14,0.38l-10.52,3.01c-10.52,3.51-21.29,5.77-32.32,6.76
		c-17.21,0.72-33.39,3.72-48.55,9l16.99-36.81c4.51-9.27,8.08-18.22,10.71-26.87c2.63-8.64,4.32-20.85,5.07-36.64
		c-5.51,10.27-9.15,18.29-10.9,24.05c-1.76,4.76-3.95,9.58-6.58,14.47c-2.63,4.89-7.33,11.21-14.09,18.98
		c-2.76-3.25-4.13-6.01-4.13-8.27v-0.38c0.25-2,0.88-3.88,1.88-5.64c0.75-0.75,1.88-3.01,3.38-6.76l0.38-3.01
		c-0.25-0.5-0.63-1.06-1.13-1.69c-0.51-0.62-0.75-1.44-0.75-2.44c0-2.25,0.5-4.88,1.5-7.89c5.76-15.03,12.27-29.93,19.54-44.72
		c6.51-13.02,12.46-26.36,17.85-40.02c5.38-13.65,9.08-27.87,11.08-42.65l0.38-7.89c0-5.01-0.5-10.02-1.5-15.03
		c-15.28-8.27-22.92-18.41-22.92-30.44c0-3.25,0.5-9.33,1.5-18.22c1-8.89,3.88-17.22,8.64-24.99c4-7.01,6.76-14.66,8.27-22.92
		c-5.01,0-8.27,0.56-9.77,1.69c-1.5,1.13-2.38,2.7-2.63,4.7c-5.01,13.53-12.91,25.8-23.67,36.83c-8.02,8.27-14.78,17.29-20.29,27.06
		c0,0.5-0.13,0.88-0.38,1.13c-0.5,1.26-1.07,2.38-1.69,3.38c-0.63,1-1.57,1.88-2.82,2.63c-21.79,13.03-35.95,25.55-42.46,37.58
		c-5.51,9.52-9.15,19.67-10.9,30.44c-1.5,6.76-3.38,13.4-5.64,19.92c-14.53,37.08-34.63,86.93-60.31,149.56
		c-25.68,62.63-46.78,111.98-63.32,148.05c-4.76,11.78-8.39,24.18-10.9,37.2c-2.5,13.03-6.39,25.68-11.65,37.95
		c0,0.25,0.38,0.75,1.13,1.5c0.75,0.75,1.76,1.76,3.01,3.01c6.26-2.75,11.53-7.64,15.78-14.66c4.26-7.01,9.27-11.65,15.03-13.9
		c0.75,0.5,1.26,1.07,1.5,1.69c0.25,0.63,0.44,1.19,0.56,1.69c0.13,0.5,0.44,1.32,0.94,2.44c0.5,1.13,0.75,1.94,0.75,2.44v0.75
		c0.25,0,0.44,0,0.56,0c0.13,0,1.44-1.25,3.95-3.76l8.27-7.14c0.75,3.76,1.13,7.27,1.13,10.52c0,8.52-2.75,15.54-8.27,21.04
		c-0.75,1.26-1.75,2.25-3.01,3.01c-4,3.01-7.76,6.45-11.27,10.33c-3.5,3.89-7.95,7.51-13.34,10.9c-5.38,3.38-13.21,5.07-23.49,5.07
		c-3.76,0-5.64,1.13-5.64,3.38v0.38c0.5,2.25,2.01,4.88,4.51,7.89c8.02,7.51,12.03,14.03,12.03,19.54c0,1.5-0.25,3.01-0.75,4.51
		c6.26,2.51,12.78,3.76,19.54,3.76s11.78,1.38,15.03,4.13c6.01,6.26,10.4,9.58,13.15,9.96c2.76,0.38,4.76,0.56,6.01,0.56
		c3.01,0,5.88-0.5,8.64-1.5l5.64-1.5c23.05-3.26,45.97-6.89,68.77-10.9c47.85-9.02,97.95-15.65,150.31-19.92
		c3.5,0,6.51-0.5,9.02-1.5c1-0.25,1.5-0.75,1.5-1.5c0-3.25,1.56-5.7,4.7-7.33c3.13-1.63,6.58-2.94,10.33-3.95
		c7.52-1.75,11.27-3.88,11.27-6.39v-2.63c0-4,1.5-6.51,4.51-7.52c3.01-1,6.26-1.5,9.77-1.5l4.13,0.38c3.25,0,6.2-0.12,8.83-0.38
		c2.63-0.25,4.7-1,6.2-2.25c1.5-1.25,3.51-2.38,6.01-3.38c2.5-1,4.7-2.19,6.58-3.57c1.88-1.37,2.94-3.32,3.19-5.83
		c-6.26-1.25-11.78-1.88-16.53-1.88c-8.02,0-14.03,1.63-18.04,4.89c-5.77,3.01-12.91,4.51-21.42,4.51c-2.01,0-3.89,0.13-5.64,0.38
		h-8.64c-2.76-0.25-5.39-1.63-7.89-4.13c-0.75-0.75-1.13-1.37-1.13-1.88c0-0.75,1.19-1.56,3.57-2.44c2.38-0.88,3.57-1.81,3.57-2.82
		c0-0.5-0.38-1.25-1.13-2.25c-6.01,0-12.02,0.63-18.04,1.88c-4.51,1-9.27,1.5-14.28,1.5c-3.51,0-6.76-0.88-9.77-2.63
		c-7.02-5.26-11.9-8.01-14.66-8.27c-2.76-0.25-4.51-0.38-5.26-0.38c-3.51,0-6.45,0.32-8.83,0.94c-2.38,0.63-4.57,1.07-6.58,1.32
		c-22.3,2.25-48.85,5.64-79.66,10.15l-2.63,0.38c-4.76,0.75-10.77,1.13-18.04,1.13c-5.01,0-10.9-0.62-17.66-1.88
		c6.51-16.28,25.68-54.11,57.49-113.48c-0.75,8.52-1.13,17.04-1.13,25.55c0,10.77,0.25,16.22,0.75,16.35c0.5,0.13,1,0.19,1.5,0.19
		h0.38c14.78-23.8,26.05-49.23,33.82-76.28l6.39-18.04c5.95-13.82,10.01-28.1,12.17-42.83c11.91,1.07,24,1.95,36.3,2.62l-4.13,12.02
		c3.51,0.75,19.16,2.88,46.97,6.39c-2.51,7.27-6.51,13.53-12.02,18.79l-1.13,1.5c-11.27,12.78-22.17,25.55-32.69,38.33l-1.5,1.88
		c-5.76,6.76-8.64,12.02-8.64,15.78c0,2.01,0.63,3.89,1.88,5.64c2.51,3.76,3.76,7.14,3.76,10.15c0,3.51-2.12,8.4-6.39,14.66
		c-0.25,0.75-0.88,1.63-1.88,2.63c-1.25,2.01-1.88,3.51-1.88,4.51c0,0.5,0.38,1.13,1.13,1.88c-6.26,8.02-12.15,16.16-17.66,24.43
		c-8.51,13.78-18.79,27.05-30.81,39.83v0.38h1.13c27.06-15.03,51.86-31.69,74.4-49.98c0,5.26-1.25,10.02-3.76,14.28
		c4.01-1,8.02-1.5,12.02-1.5c6.76,0,11.03-1.13,12.78-3.38c6.01-7.01,12.65-13.59,19.92-19.73c7.26-6.14,13.77-12.46,19.54-18.98
		c32.32-40.08,55.24-69.52,68.77-88.31l0.75-0.75c5.51-7.52,10.15-12.96,13.9-16.35s8.83-5.88,15.22-7.52
		c6.39-1.63,16.35-3.32,29.87-5.07c6.51-1,11.77-1.5,15.78-1.5c4.26,0,7.45,0.56,9.58,1.69c2.12,1.13,3.19,3.57,3.19,7.33
		c0,2.01-0.38,4.26-1.13,6.76c-2.76,12.78-6.14,25.55-10.15,38.33c-3.01,9.52-5.64,18.92-7.89,28.18
		c-2.25,9.27-3.89,18.29-4.88,27.06c-1.5,13.03-3.01,21.48-4.51,25.36c-1.5,3.89-2.51,7.58-3.01,11.09c-1,3.01-2.13,5.89-3.38,8.64
		c-0.5,1-0.75,1.88-0.75,2.63c0,2.25,1.5,3.89,4.51,4.89c1,7.52,2.38,14.66,4.13,21.42c0,0.25,0.19,0.38,0.56,0.38s0.69,0,0.94,0
		c0.75,0.25,1.37,0.13,1.88-0.38c3.5-9.52,8.89-18.66,16.16-27.43c3.01,16.04,5.26,32.13,6.76,48.29s3.76,32.38,6.76,48.66
		c6.01-3.76,9.96-7.26,11.84-10.52c1.88-3.25,2.94-6.39,3.19-9.39l0.75-1.88c2.25-8.51,5.76-16.78,10.52-24.8
		c2.5-4.26,4.76-8.51,6.76-12.78c1.25-2.75,4.13-5.13,8.64-7.14c5.26-3.01,7.89-5.64,7.89-7.89c0-4.76,1.25-9.39,3.76-13.9
		c0.5,10.28,1.88,15.66,4.13,16.16h4.51c1.5-0.5,2.5-1.25,3.01-2.25c9.02-16.03,15.97-32.82,20.86-50.35
		c4.88-17.53,8.95-35.19,12.21-52.98c3.25-16.03,6.89-31.56,10.9-46.6c6.76-25.3,11.58-50.48,14.47-75.53
		C2938.4,280.84,2940.6,255.54,2942.1,229.99z M2562.2,157.84c0.5-6.26,1.56-12.34,3.19-18.23c1.63-5.88,5.2-11.08,10.71-15.59v3.38
		c0,16.53-5.14,30.94-15.41,43.21C2561.45,166.36,2561.95,162.1,2562.2,157.84z M2448.34,359.25
		c-8.02,19.04-15.35,38.14-21.98,57.31c-6.64,19.16-11.08,39.02-13.34,59.56l-9.02,16.53c-4.26-3.5-6.52-5.95-6.76-7.33
		c-0.25-1.37-0.38-2.19-0.38-2.44c0-1.75,0.5-3.51,1.5-5.26c0.5-1.25,1.25-2.57,2.25-3.95c1-1.37,1.69-2.69,2.07-3.95
		c0.38-1.25,0.56-2.38,0.56-3.38c0-3.51-2.51-7.76-7.52-12.78c-1.76-2-2.63-4.13-2.63-6.39c0-2,0.75-4.13,2.25-6.39
		c3.25-5.01,7.76-9.14,13.53-12.4c0.25-4.26,4-14.21,11.27-29.87c7.26-15.65,15.84-33.19,25.74-52.61
		c9.89-19.41,18.98-37.14,27.24-53.17C2465.87,315.29,2457.6,337.46,2448.34,359.25z M2486.67,284.1l-1.13,2.25l-0.38-17.29
		l4.88-9.77c1.5,3.26,2.25,6.39,2.25,9.39C2492.3,273.2,2490.43,278.34,2486.67,284.1z M2832,299.13c-2.01,4.01-4.76,6.2-8.27,6.58
		c-3.51,0.38-6.64,0.56-9.39,0.56c-2.51,0-5.14-0.12-7.89-0.38c-2.76-0.25-6.64-0.38-11.65-0.38c-0.5-1.25-0.75-2.25-0.75-3.01
		c0-2.25,1.32-4.7,3.95-7.33c2.63-2.63,3.95-4.94,3.95-6.95c0-1-0.63-1.63-1.88-1.88c-1.5,0-2.88,0.19-4.13,0.56
		c-1.26,0.38-2.38,0.56-3.38,0.56h-0.75c-1.26-0.5-1.88-1-1.88-1.5c0-0.75,0.87-2,2.63-3.76l1.13-0.75c1.75-1.5,3.63-2.88,5.64-4.13
		h0.38c1-1,1.75-2.38,2.25-4.13c1.25-3.51,4.76-7.14,10.52-10.9v2.25c0,5.26-3.38,8.64-10.15,10.15c-1,1-1.57,1.69-1.69,2.07
		c-0.13,0.38-0.19,1.31-0.19,2.82c0,4.76,0.38,7.14,1.13,7.14l1.5-0.75c6.76-5.01,12.52-10.65,17.29-16.91
		c5.51-7.52,13.53-14.65,24.05-21.42c0.5,3.26,0.75,6.52,0.75,9.77C2845.15,267.69,2840.77,281.6,2832,299.13z"/>
	<path d="M3424.22,231.49c1.25-2.75,1.88-5.64,1.88-8.64l-0.38-3.01c-5.01,3.76-8.64,7.52-10.9,11.27
		c-3.01,5.26-7.02,16.41-12.03,33.44c-3.01,11.03-6.76,22.3-11.27,33.82c-10.77,27.81-17.29,54.99-19.54,81.54l-1.88,3.01
		c-11.77,18.04-17.66,37.45-17.66,58.24c0,9.77,1.26,19.79,3.76,30.06l19.54-21.04c1-1.25,1.88-2.63,2.63-4.13
		c1.5-4.26,4.26-6.39,8.27-6.39l4.13,0.38c4.26,1.26,6.51,3.14,6.76,5.64v1.88c0,2.25-0.63,4.51-1.88,6.76l-0.75,0.75
		c-0.5,0.5-0.75,1.5-0.75,3.01c0,2.25,2.63,4.76,7.89,7.52c22.55-41.83,45.84-83.04,69.89-123.63l16.16-27.06
		c6.76-12.27,10.77-18.41,12.02-18.41c0.25,0,0.38,0.25,0.38,0.75c0,1.26-0.88,4.51-2.63,9.77l-3.01,11.65
		c-1.26,4.76-3.14,9.39-5.64,13.9c-4.51,8.02-6.76,15.03-6.76,21.04c0,3.51,0.62,7.02,1.88,10.52l8.27-16.91
		c5.26-11.27,10.65-22.04,16.16-32.32c3.01-5.51,5.76-11.02,8.27-16.53h1.88c3.5-7.76,7.01-15.91,10.52-24.43l10.15-18.79
		c5.51-9.77,8.27-16.53,8.27-20.29c0-2-0.56-4.44-1.69-7.33c-1.13-2.88-3.95-7.83-8.46-14.84l-0.38-1.5v-1.13
		c0-2.25-1.13-3.88-3.38-4.88c-5.77,1.5-9.9,5.01-12.4,10.52c-2.51,5.51-6.39,9.15-11.65,10.9c-3.01-1.75-4.51-4-4.51-6.76
		l0.75-5.26c0-1-0.19-2.07-0.56-3.19c-0.38-1.13-2.07-2.44-5.07-3.95c-6.26,3.26-13.9,6.45-22.92,9.58
		c-9.02,3.14-17.54,6.71-25.55,10.71c-8.02,4.01-13.28,9.02-15.78,15.03c-1,2.25-3.38,3.89-7.14,4.88c-1.76,0.5-3.89,0.75-6.39,0.75
		c-2.25,0-4.88-0.25-7.89-0.75l3.38-5.26C3420.46,238.88,3422.46,235.25,3424.22,231.49z"/>
	<path d="M3758.65,196.54c0-1.75,0.25-3.88,0.75-6.39l0.38-3.01c0-5.51-3.63-11.4-10.9-17.66l-0.75,4.13
		c-8.27-13.28-21.17-25.05-38.71-35.32h-1.13c-0.25,0.25-0.38,0.44-0.38,0.56c0,0.13,0,0.32,0,0.56v0.38
		c12.02,8.27,20.23,16.79,24.61,25.55c4.38,8.77,6.58,18.67,6.58,29.69c-6.01-13.02-15.66-27.06-28.93-42.09
		c-8.77-9.77-20.54-18.16-35.32-25.18c-30.81-15.28-64.76-23.54-101.83-24.8c-7.51-1-14.91-1.5-22.17-1.5
		c-9.77,0-19.54,0.88-29.31,2.63c-17.54,3.01-34.32,7.39-50.35,13.15c-1.26,0.25-2.51,0.56-3.76,0.94
		c-1.26,0.38-2.63,0.56-4.13,0.56c-4.51,0.75-7.14,1.38-7.89,1.88c-0.75,0.5-1.13,1.13-1.13,1.88v0.38l0.75,0.38l-14.28,5.26
		l-0.38,0.38l0.75,0.38c13.53-3.01,21.1-4.57,22.73-4.7c1.63-0.12,3.57-0.19,5.82-0.19c1.75,0.25,3.38,1.26,4.88,3.01
		c-4.76,2.25-10.02,3.89-15.78,4.88c-11.53,2.51-22.17,5.26-31.94,8.27c-12.28,1.26-22.11,3.01-29.5,5.26
		c-6.95,2.12-11.82,5.81-14.67,11.03c-0.69-3.69-1.74-5.87-3.17-6.53c5.01-5.76,9.14-12.27,12.4-19.54
		c2.5-8.01,3.76-16.16,3.76-24.43c0-4.26-0.32-8.58-0.94-12.96c-0.63-4.38-0.94-8.7-0.94-12.96c0-7.26,0.75-14.4,2.25-21.42v-0.38
		c0-0.25-0.25-0.56-0.75-0.94c-0.5-0.38-1-0.56-1.5-0.56c-0.75,0.25-1.26,0.63-1.5,1.13c-9.27,17.54-16.53,35.32-21.79,53.36
		c-5.01,12.28-13.28,23.17-24.8,32.69l-11.65,11.27c2.5-14.03,5.88-27.68,10.15-40.96c0-1.25-0.75-1.88-2.25-1.88
		c-0.75,0.25-1.38,0.63-1.88,1.13c-11.78,17.29-22.67,35.08-32.69,53.36c-2.51,3.01-5.95,11.15-10.33,24.43
		c-0.92,2.79-2.01,5.95-3.25,9.43c-1.11,0.49-2.23,0.99-3.33,1.47c-0.25,0-0.38,0.13-0.38,0.38l0.38,0.75h0.75
		c0.6-0.15,1.21-0.29,1.81-0.43c-4.63,12.9-11.24,30.2-19.85,51.91c-8.52,13.53-14.28,27.81-17.29,42.84
		c-7.52,18.79-11.53,30.44-12.02,34.95c2.75-2.75,5.01-5.38,6.76-7.89l-6.39,28.56c-0.25,0-0.38,0.13-0.38,0.38
		c-1.5-0.75-2.38-1.5-2.63-2.25v-3.01l0.38-2.63c0-1.75-1.75-2.88-5.26-3.38c-2.01,3.76-3.13,6.64-3.38,8.64v3.01
		c0,2.76,1.37,5.89,4.13,9.39c0.5,0.75,0.75,1.38,0.75,1.88c0,0.5-0.5,1.07-1.5,1.69c-1,0.63-2.69,1.26-5.07,1.88
		c-2.38,0.63-4.7,1.31-6.95,2.07c-9.52-26.55-16.97-45.97-22.36-58.24c-5.39-12.27-9.58-20.16-12.59-23.67l-0.38,4.51
		c0,5.51,1.13,10.65,3.38,15.41c3.01,10.02,4.51,15.66,4.51,16.91c-0.25,2.25-2.38,4.39-6.39,6.39h0.38v0.75
		c8.27,4.26,13.09,8.9,14.47,13.9c1.37,5.01,2.07,11.27,2.07,18.79v6.39c-4.26-5.26-9.02-14.71-14.28-28.37
		c-5.26-13.65-9.65-27.11-13.15-40.4c-3.51-13.28-5.26-23.3-5.26-30.06c1.5,0,2.69,0.32,3.57,0.94c0.88,0.63,1.63,1.44,2.25,2.44
		c0.62,1,1.37,1.69,2.25,2.07c0.87,0.38,1.69,0.56,2.44,0.56l3.38-0.38l-0.38-1.13c-0.75-3.5-2.51-6.63-5.26-9.39
		c2.5-2.25,3.88-4.89,4.13-7.89c0-3.25-1.26-5.45-3.76-6.58c-2.51-1.13-5.45-1.88-8.83-2.25c-3.38-0.38-6.58-1.06-9.58-2.07
		c-3.01-1-5.39-2.88-7.14-5.64c-0.5-2.5-1.76-4.88-3.76-7.14l-1.13-2.25c-4.51-11.02-8.4-22.29-11.65-33.82
		c-2.25-8.01-4.88-16.03-7.89-24.05c-1-3.01-3.26-5.51-6.76-7.52c-0.75-7.26-2.13-14.53-4.13-21.79c0-0.25-0.25-0.5-0.75-0.75h-1.13
		l-1.13,0.75l-4.89,12.78l-0.38-15.78c0-10.02,1.5-19.66,4.51-28.93v-0.38c0-0.75-0.5-1.13-1.5-1.13c-0.5,0-0.88,0.13-1.13,0.38
		c-5.51,8.02-11.53,15.66-18.04,22.92l-11.65,13.53l-4.51-7.89c-1-1.25-2.76-1.88-5.26-1.88c-2.51,0-4.45,0.75-5.82,2.25
		c-1.38,1.5-2.57,3.26-3.57,5.26c-0.25-0.75-0.63-1.63-1.13-2.63c-0.5-1-0.88-1.88-1.13-2.63c-0.25-0.75-1-1.13-2.25-1.13
		c-1.26,0-1.88,0.5-1.88,1.5l2.63,12.02l-2.63,4.13v0.38c-15.03,16.29-26.3,34.07-33.82,53.36c-3.76,8.77-7.27,18.54-10.52,29.31
		c-4.01,7.77-8.64,20.54-13.9,38.33c-5.26,16.79-12.15,36.7-20.67,59.75c-7.26,12.78-11.9,25.05-13.9,36.83l-0.38,1.88
		c-1,2.51-1.81,4.39-2.44,5.64c-0.62,1.26-1.19,2.2-1.69,2.82c-0.5,0.63-1.06,1.19-1.69,1.69c-0.62,0.5-1.19,1.76-1.69,3.76
		c-0.75,3.51-1.5,8.64-2.25,15.41c-0.75-0.5-1.13-1.37-1.13-2.63v-3.38c-0.5-1.5-2.38-2.5-5.64-3.01c0,0.5-0.12,0.88-0.38,1.13
		c-1.5,3.01-2.25,5.89-2.25,8.64c0,2.76,1.63,5.77,4.88,9.02c0.75,0.5,1.13,1,1.13,1.5c0,0.5-0.56,1.07-1.69,1.69
		c-1.13,0.63-3.06,1.26-5.82,1.88c-2.75,0.63-5.51,1.57-8.27,2.82c-2.75,1.26-4.13,3.19-4.13,5.82c0,2.63-0.56,5.07-1.69,7.33
		c-1.13,2.25-2.44,4.64-3.95,7.14c-3.01,4.01-4.7,7.14-5.07,9.39c-0.38,2.25-0.56,3.63-0.56,4.13c0,3.76,2.25,7.64,6.76,11.65
		c0.5,0.5,0.75,1.13,0.75,1.88c0,1-1.25,3.51-3.76,7.52l-2.63,4.13c-1.75,2.51-2.63,4.64-2.63,6.39c0,1.5,0.63,3.01,1.88,4.51
		c8.52-1.5,14.66-2.25,18.41-2.25c3.76,0.25,6.39,1.63,7.89,4.13c-1.75,7.52-3.13,15.16-4.13,22.92c-2,17.29-6.39,34.32-13.15,51.1
		v0.38c0,0.25,0.25,0.5,0.75,0.75c0.5,0.25,1,0.38,1.5,0.38c0.75,0,1.38-0.25,1.88-0.75c7.02-13.02,14.91-25.8,23.67-38.33
		c10.02-13.77,18.79-27.93,26.3-42.46c2.5-5.01,5.51-10.15,9.02-15.41l-0.38,4.13l-0.38,0.38c-0.75,1.76-1.63,3.38-2.63,4.88
		c0,0.75,0.5,1.13,1.5,1.13h0.75c-0.75,5.77-1.63,11.4-2.63,16.91l0.75,1.13c1.5,0,2.5-0.25,3.01-0.75
		c6.26-11.52,13.59-23.67,21.98-36.45c8.39-12.78,16.22-25.86,23.49-39.27c7.26-13.4,12.15-26.74,14.66-40.02l5.64-14.66
		c6.26-15.78,11.21-29.25,14.84-40.4c3.63-11.14,7.45-24.86,11.46-41.15l3.01-4.13c3.25,12.28,8.14,23.93,14.66,34.95l5.64,14.28
		c4.76,12.02,9.39,19.42,13.9,22.17c2,1,4.26,2.82,6.76,5.45c2.5,2.63,5.76,7.7,9.77,15.22c2.25,26.81,14.9,51.73,37.95,74.78
		c4,13.53,8.77,26.81,14.28,39.83c5.51,13.03,9.77,24.93,12.78,35.7c-0.5,1.5-1.26,3.14-2.25,4.89c0,0.5,0.19,0.88,0.56,1.13
		c0.38,0.25,0.81,0.38,1.32,0.38c1.25,0,2-0.19,2.25-0.56c0.25-0.38,0.43-0.69,0.56-0.94c0.12-0.25,0.31-0.62,0.56-1.13l2.25,0.38
		c3.01,0,4.51-1.13,4.51-3.38v-4.88l-0.38-2.63c1-1.5,1.94-3.06,2.82-4.7c0.88-1.63,1.94-3.32,3.19-5.07l1.13,1.13
		c2.75,8.27,6.89,16.53,12.4,24.8c0.25,0.5,0.75,0.75,1.5,0.75c1.25,0,2.12-0.38,2.63-1.13c0.5-0.75,1.13-1.88,1.88-3.38
		c0.5,0.25,0.94,0.82,1.32,1.69c0.38,0.88,0.94,1.32,1.69,1.32c1.5,0,2.25-0.38,2.25-1.13v-0.38c-0.25-1.5-0.63-2.82-1.13-3.95
		c-0.5-1.13-0.88-2.19-1.13-3.19c9.52-17.29,18.41-34.69,26.68-52.23c0.25,5.01,0.38,10.15,0.38,15.41l-0.38,15.03
		c0,1.5,1.13,2.25,3.38,2.25c1.75,0,2.75-0.5,3.01-1.5c5.76-17.29,12.78-34.32,21.04-51.1c6.76-13.77,12.71-27.62,17.85-41.52
		c5.13-13.9,8.2-28.12,9.21-42.65c1-1.75,1.88-3.63,2.63-5.64l2.63-5.26c11.27-26.3,21.04-46.6,29.31-60.88l3.01-5.26
		c6.51-10.27,11.14-18.22,13.9-23.86c2.75-5.64,4.26-11.46,4.51-17.47c0-5.76-0.5-14.03-1.5-24.8l-0.75-8.27
		c0-0.5-0.25-0.87-0.75-1.13c-1.26,0-2.13,0.25-2.63,0.75c-7.52,18.79-16.53,36.95-27.06,54.49l7.14-26.3
		c13.28-18.79,21.42-36.45,24.43-52.98c0.91-5.01,1.6-9.61,2.1-13.84c7.32-1.58,14.63-3.22,21.95-4.94c9.27-2,19.04-3.88,29.31-5.64
		c7.26-0.5,14.03-1.5,20.29-3.01c2.25-0.5,4.38-0.75,6.39-0.75c4.51,0,9.33,1.38,14.47,4.13c5.13,2.76,9.33,4.13,12.59,4.13
		c2.5,0,5.26-0.75,8.27-2.25c11.27-5.26,24.05-8.39,38.33-9.39l8.64-0.75c6.26-1,12.65-1.5,19.16-1.5c4.51,0,9.02,0.25,13.53,0.75
		c20.29,2.51,38.95,7.64,55.99,15.41l1.5,0.38c4.76,2.01,7.45,3.82,8.08,5.45c0.62,1.63,0.94,2.95,0.94,3.95
		c0,1.5-0.38,3.14-1.13,4.89c-16.79-10.52-36.2-16.66-58.24-18.41c-6.76-1.25-14.66-1.88-23.67-1.88h-0.38v0.38l4.51,0.38
		c14.78,3.01,26.87,8.21,36.26,15.59c9.39,7.39,17.72,15.97,24.99,25.74c6.26,9.27,9.39,19.92,9.39,31.94
		c0,6.52-0.88,13.28-2.63,20.29c-8.02,33.32-24.3,68.39-48.85,105.22c-0.75,1.5-1.5,2.76-2.25,3.76
		c-21.79,36.07-55.24,67.89-100.33,95.45c-32.82,21.29-63.26,31.94-91.31,31.94c-7.51,0-15.41-0.62-23.67-1.88
		c-0.75,1.26-1.13,2.38-1.13,3.38c0,0.75,0.5,1.63,1.5,2.63c1,1,2.63,2.01,4.89,3.01c2.25,1,3.95,2.01,5.07,3.01
		c1.13,1,1.69,2.13,1.69,3.38l-0.38,2.25c-5.01,1.5-9.89,3.26-14.66,5.26c-8.27,4.26-17.53,6.76-27.81,7.52l1.13-0.38
		c-0.25-0.25-0.75-0.38-1.5-0.38v0.75c-23.3,10.52-47.97,19.42-74.03,26.68l-27.43,8.64c0.75,1,1.75,1.63,3.01,1.88
		c1.26,0.25,2.7,0.38,4.32,0.38c1.63,0,3.07,0.13,4.32,0.38c1.26,0.25,2.25,1,3.01,2.25c-35.82,9.27-70.39,20.42-103.71,33.44
		c-4.51,1.75-6.76,2.88-6.76,3.38c0,0.75,0.5,1.13,1.5,1.13h1.13c27.81-7.01,60.75-11.77,98.83-14.28
		c22.55-1.75,44.72-4.13,66.51-7.14c0,1.26,0.25,2.25,0.75,3.01h8.64l-6.39,2.63l0.38,0.38l36.07-9.02
		c-24.55,9.77-49.35,17.66-74.4,23.67c-0.25,0-0.38,0.38-0.38,1.13h1.13c34.07-2.75,66.01-7.76,95.82-15.03
		c1.26,1.26,2.88,1.88,4.88,1.88c2.01,0,4.26-0.75,6.76-2.25c3.51-2,6.76-3.63,9.77-4.89c13.28-3.5,26.93-7.52,40.96-12.02
		l32.69-10.9c2.75-0.75,5.51-1.32,8.27-1.69c2.75-0.38,5.51-1.19,8.27-2.44c0.25-0.25,0.62-0.38,1.13-0.38
		c73.9-30.06,133.27-63.25,178.12-99.58c0.25,0,1-0.62,2.25-1.88c0.5-0.25,0.75-0.88,0.75-1.88c0-0.5-0.5-1.13-1.5-1.88
		c-2.01,0-3.57,0.25-4.7,0.75c-1.13,0.5-2.32,1.13-3.57,1.88c-3.01,2.01-5.51,3.01-7.51,3.01c-1.26,0-2.76-0.25-4.51-0.75
		c7.76-10.02,17.29-19.17,28.56-27.43c5.76-4.51,11.4-9.27,16.91-14.28c2.75-2.75,5.64-5.38,8.64-7.89
		c9.77-8.77,18.66-17.85,26.68-27.24c8.01-9.39,13.02-19.6,15.03-30.63c2.75-13.53,7.01-26.55,12.78-39.08
		c3.01-6.51,5.64-13.15,7.89-19.92c4.51-12.52,6.76-26.8,6.76-42.84l1.13-18.79l0.38-10.52
		C3762.79,215.96,3761.41,206.07,3758.65,196.54z"/>
</g>
</svg>
